G04 EAGLE Gerber RS-274X export*
G75*
%MOMM*%
%FSLAX34Y34*%
%LPD*%
%INSoldermask Bottom*%
%IPPOS*%
%AMOC8*
5,1,8,0,0,1.08239X$1,22.5*%
G01*
%ADD10P,1.924489X8X22.500000*%
%ADD11P,2.927973X8X22.500000*%
%ADD12C,1.600000*%
%ADD13C,2.250000*%
%ADD14C,1.000000*%
%ADD15P,1.649562X8X112.500000*%
%ADD16P,2.336880X8X22.500000*%
%ADD17C,1.524000*%
%ADD18P,1.319650X8X202.500000*%
%ADD19C,1.219200*%
%ADD20C,1.400000*%
%ADD21C,3.251200*%
%ADD22C,5.250000*%
%ADD23C,4.500000*%


D10*
X741844Y123952D03*
D11*
X703744Y45974D03*
X779944Y45974D03*
D10*
X909484Y123952D03*
D11*
X871384Y45974D03*
X947584Y45974D03*
D10*
X576236Y121920D03*
D11*
X538136Y43942D03*
X614336Y43942D03*
D12*
X867536Y760484D03*
X867536Y690484D03*
X742536Y760484D03*
X742536Y690484D03*
D13*
X1166300Y787480D03*
X1093300Y787480D03*
X1093300Y734480D03*
X1166300Y734480D03*
D14*
X1147300Y754480D03*
X1112300Y754480D03*
D15*
X1173200Y87630D03*
X1173200Y138430D03*
X1173200Y62230D03*
X1173200Y113030D03*
X1119900Y87630D03*
X1119900Y138430D03*
X1119900Y62230D03*
X1119900Y113030D03*
D16*
X95420Y327900D03*
X1101852Y429260D03*
D17*
X529604Y510492D03*
D15*
X504204Y510492D03*
X529604Y535892D03*
X504204Y535892D03*
X529604Y561292D03*
X504204Y561292D03*
D16*
X886366Y389382D03*
X1006602Y519938D03*
D18*
X977406Y635896D03*
D19*
X1002806Y635896D03*
D20*
X95550Y125500D03*
X108250Y150900D03*
X120950Y125500D03*
X133650Y150900D03*
X146350Y125500D03*
X159050Y150900D03*
X171750Y125500D03*
X184450Y150900D03*
D21*
X82850Y62000D03*
X197150Y62000D03*
D20*
X315550Y125500D03*
X328250Y150900D03*
X340950Y125500D03*
X353650Y150900D03*
X366350Y125500D03*
X379050Y150900D03*
X391750Y125500D03*
X404450Y150900D03*
D21*
X302850Y62000D03*
X417150Y62000D03*
D22*
X178680Y683484D03*
D23*
X178680Y743484D03*
X129680Y712984D03*
M02*
