G04 EAGLE Gerber RS-274X export*
G75*
%MOMM*%
%FSLAX34Y34*%
%LPD*%
%INSoldermask Top*%
%IPPOS*%
%AMOC8*
5,1,8,0,0,1.08239X$1,22.5*%
G01*
%ADD10P,1.924489X8X22.500000*%
%ADD11P,2.927973X8X22.500000*%
%ADD12R,2.550000X2.400000*%
%ADD13R,2.750000X2.900000*%
%ADD14C,1.600000*%
%ADD15R,0.700000X0.900000*%
%ADD16R,0.600000X2.708000*%
%ADD17R,0.900000X0.700000*%
%ADD18R,1.500000X1.300000*%
%ADD19R,0.600000X2.000000*%
%ADD20R,0.500000X2.000000*%
%ADD21C,2.250000*%
%ADD22C,1.000000*%
%ADD23R,1.000000X1.100000*%
%ADD24R,0.600000X1.408000*%
%ADD25R,1.100000X1.000000*%
%ADD26R,1.408000X0.600000*%
%ADD27P,1.649562X8X112.500000*%
%ADD28R,1.000000X1.400000*%
%ADD29P,2.336880X8X22.500000*%
%ADD30C,1.524000*%
%ADD31R,1.500000X0.400000*%
%ADD32R,0.990000X0.690000*%
%ADD33P,1.319650X8X202.500000*%
%ADD34C,1.219200*%
%ADD35R,1.550000X0.550000*%
%ADD36R,0.550000X1.550000*%
%ADD37R,1.200000X1.400000*%
%ADD38C,1.400000*%
%ADD39C,3.251200*%
%ADD40R,1.200000X0.350000*%
%ADD41R,2.900000X3.580000*%
%ADD42R,0.600000X0.800000*%
%ADD43R,2.400000X2.400000*%
%ADD44R,3.810000X2.413000*%
%ADD45R,1.300000X1.500000*%
%ADD46R,2.600000X2.400000*%
%ADD47R,2.032000X0.660400*%
%ADD48R,0.690000X0.990000*%
%ADD49R,0.660400X2.032000*%
%ADD50C,5.250000*%
%ADD51C,4.500000*%


D10*
X741844Y123952D03*
D11*
X703744Y45974D03*
X779944Y45974D03*
D10*
X909484Y123952D03*
D11*
X871384Y45974D03*
X947584Y45974D03*
D10*
X576236Y121920D03*
D11*
X538136Y43942D03*
X614336Y43942D03*
D12*
X904286Y752484D03*
D13*
X831786Y678484D03*
D12*
X830786Y771484D03*
D14*
X867536Y760484D03*
X867536Y690484D03*
D12*
X779286Y752484D03*
D13*
X706786Y678484D03*
D12*
X705786Y771484D03*
D14*
X742536Y760484D03*
X742536Y690484D03*
D15*
X613182Y572106D03*
X600182Y572106D03*
D16*
X614270Y600996D03*
X626970Y600996D03*
X639670Y600996D03*
X652370Y600996D03*
X652370Y658076D03*
X639670Y658076D03*
X626970Y658076D03*
X614270Y658076D03*
D15*
X623544Y694084D03*
X636544Y694084D03*
X1047646Y597916D03*
X1034646Y597916D03*
D17*
X1051306Y549806D03*
X1051306Y536806D03*
X1200912Y533758D03*
X1200912Y546758D03*
X1079754Y654200D03*
X1079754Y641200D03*
D15*
X1122576Y626618D03*
X1109576Y626618D03*
X1144374Y626618D03*
X1157374Y626618D03*
D18*
X1044448Y634898D03*
X1044448Y653898D03*
D17*
X1198880Y721084D03*
X1198880Y734084D03*
D19*
X1143356Y690124D03*
X1133856Y690124D03*
X1124356Y690124D03*
X1124356Y659124D03*
X1133856Y659124D03*
X1143356Y659124D03*
D20*
X1145800Y731980D03*
X1137800Y731980D03*
X1129800Y731980D03*
X1121800Y731980D03*
X1113800Y731980D03*
D21*
X1166300Y787480D03*
X1093300Y787480D03*
X1093300Y734480D03*
X1166300Y734480D03*
D22*
X1147300Y754480D03*
X1112300Y754480D03*
D15*
X1011328Y348996D03*
X1024328Y348996D03*
X1011328Y313436D03*
X1024328Y313436D03*
X877540Y622132D03*
X864540Y622132D03*
D17*
X878432Y586964D03*
X878432Y599964D03*
D23*
X931300Y595136D03*
X931300Y612136D03*
D24*
X929416Y541068D03*
X938916Y541068D03*
X948416Y541068D03*
X948416Y569148D03*
X929416Y569148D03*
D25*
X928160Y507316D03*
X911160Y507316D03*
D23*
X934740Y403912D03*
X934740Y420912D03*
D26*
X990436Y407992D03*
X990436Y417492D03*
X990436Y426992D03*
X962356Y426992D03*
X962356Y407992D03*
D25*
X1031292Y407904D03*
X1048292Y407904D03*
D17*
X910356Y405912D03*
X910356Y418912D03*
D27*
X1173200Y87630D03*
X1173200Y138430D03*
X1173200Y62230D03*
X1173200Y113030D03*
X1119900Y87630D03*
X1119900Y138430D03*
X1119900Y62230D03*
X1119900Y113030D03*
D28*
X1076960Y196264D03*
X1067460Y218264D03*
X1086460Y218264D03*
D15*
X1070460Y239776D03*
X1083460Y239776D03*
X1083460Y175768D03*
X1070460Y175768D03*
D28*
X1117600Y196264D03*
X1108100Y218264D03*
X1127100Y218264D03*
D15*
X1111100Y239776D03*
X1124100Y239776D03*
X1124100Y175768D03*
X1111100Y175768D03*
D28*
X1158240Y196264D03*
X1148740Y218264D03*
X1167740Y218264D03*
D15*
X1151740Y239776D03*
X1164740Y239776D03*
X1164740Y175768D03*
X1151740Y175768D03*
D28*
X1198880Y196264D03*
X1189380Y218264D03*
X1208380Y218264D03*
D15*
X1192380Y239776D03*
X1205380Y239776D03*
X1205380Y175768D03*
X1192380Y175768D03*
D23*
X525390Y137160D03*
X508390Y137160D03*
X698090Y137160D03*
X681090Y137160D03*
X866639Y137160D03*
X849639Y137160D03*
D29*
X95420Y327900D03*
X1101852Y429260D03*
D30*
X529604Y510492D03*
D27*
X504204Y510492D03*
X529604Y535892D03*
X504204Y535892D03*
X529604Y561292D03*
X504204Y561292D03*
D31*
X1163756Y513502D03*
X1163756Y520002D03*
X1163756Y526502D03*
X1163756Y533002D03*
X1163756Y539502D03*
X1163756Y546002D03*
X1163756Y552502D03*
X1163756Y559002D03*
X1163756Y565502D03*
X1163756Y572002D03*
X1163756Y578502D03*
X1163756Y585002D03*
X1163756Y591502D03*
X1163756Y598002D03*
X1091256Y598002D03*
X1091256Y591502D03*
X1091256Y585002D03*
X1091256Y578502D03*
X1091256Y572002D03*
X1091256Y565502D03*
X1091256Y559002D03*
X1091256Y552502D03*
X1091256Y546002D03*
X1091256Y539502D03*
X1091256Y533002D03*
X1091256Y526502D03*
X1091256Y520002D03*
X1091256Y513502D03*
D15*
X853671Y109220D03*
X866671Y109220D03*
D29*
X886366Y389382D03*
X1006602Y519938D03*
D32*
X810036Y582796D03*
X810036Y592296D03*
X810036Y601796D03*
X784136Y601796D03*
X784136Y582796D03*
X720036Y583336D03*
X720036Y592836D03*
X720036Y602336D03*
X694136Y602336D03*
X694136Y583336D03*
D17*
X781896Y558156D03*
X781896Y545156D03*
X692404Y559712D03*
X692404Y546712D03*
X826395Y558274D03*
X826395Y545274D03*
X726964Y556664D03*
X726964Y543664D03*
D33*
X977406Y635896D03*
D34*
X1002806Y635896D03*
D17*
X449966Y516304D03*
X449966Y529304D03*
X571536Y550210D03*
X571536Y537210D03*
X826516Y134516D03*
X826516Y121516D03*
X595717Y550050D03*
X595717Y537050D03*
D25*
X1199388Y776088D03*
X1199388Y759088D03*
D23*
X1024128Y550300D03*
X1024128Y567300D03*
D35*
X582024Y423280D03*
X582024Y415280D03*
X582024Y407280D03*
X582024Y399280D03*
X582024Y391280D03*
X582024Y383280D03*
X582024Y375280D03*
X582024Y367280D03*
X582024Y359280D03*
X582024Y351280D03*
X582024Y343280D03*
D36*
X599524Y325780D03*
X607524Y325780D03*
X615524Y325780D03*
X623524Y325780D03*
X631524Y325780D03*
X639524Y325780D03*
X647524Y325780D03*
X655524Y325780D03*
X663524Y325780D03*
X671524Y325780D03*
X679524Y325780D03*
D35*
X697024Y343280D03*
X697024Y351280D03*
X697024Y359280D03*
X697024Y367280D03*
X697024Y375280D03*
X697024Y383280D03*
X697024Y391280D03*
X697024Y399280D03*
X697024Y407280D03*
X697024Y415280D03*
X697024Y423280D03*
D36*
X679524Y440780D03*
X671524Y440780D03*
X663524Y440780D03*
X655524Y440780D03*
X647524Y440780D03*
X639524Y440780D03*
X631524Y440780D03*
X623524Y440780D03*
X615524Y440780D03*
X607524Y440780D03*
X599524Y440780D03*
D15*
X533804Y360172D03*
X520804Y360172D03*
X757024Y405384D03*
X770024Y405384D03*
D17*
X610616Y484228D03*
X610616Y497228D03*
D37*
X635848Y502460D03*
X635848Y478460D03*
X655848Y478460D03*
X655848Y502460D03*
D17*
X677432Y499440D03*
X677432Y486440D03*
D23*
X814460Y336296D03*
X831460Y336296D03*
D38*
X95550Y125500D03*
X108250Y150900D03*
X120950Y125500D03*
X133650Y150900D03*
X146350Y125500D03*
X159050Y150900D03*
X171750Y125500D03*
X184450Y150900D03*
D39*
X82850Y62000D03*
X197150Y62000D03*
D38*
X315550Y125500D03*
X328250Y150900D03*
X340950Y125500D03*
X353650Y150900D03*
X366350Y125500D03*
X379050Y150900D03*
X391750Y125500D03*
X404450Y150900D03*
D39*
X302850Y62000D03*
X417150Y62000D03*
D40*
X153647Y599202D03*
X153647Y592652D03*
X153647Y586152D03*
X153647Y579652D03*
X153647Y573152D03*
X153647Y566652D03*
X153647Y560152D03*
X153647Y553652D03*
X214097Y553652D03*
X214097Y560152D03*
X214097Y566652D03*
X214097Y573152D03*
X214097Y579652D03*
X214097Y586152D03*
X214097Y592652D03*
X214097Y599152D03*
D41*
X183872Y576402D03*
D17*
X246124Y501744D03*
X246124Y488744D03*
X246124Y589488D03*
X246124Y576488D03*
D23*
X118120Y572412D03*
X118120Y555412D03*
D42*
X82056Y549832D03*
X82056Y573832D03*
D43*
X174260Y498264D03*
X174260Y454264D03*
D44*
X97492Y441780D03*
X97492Y503780D03*
D45*
X110324Y629936D03*
X91324Y629936D03*
D15*
X109864Y597932D03*
X96864Y597932D03*
X148592Y338744D03*
X161592Y338744D03*
D46*
X150016Y385480D03*
X214016Y385480D03*
D47*
X343418Y647752D03*
X343418Y635052D03*
X343418Y622352D03*
X343418Y609652D03*
X343418Y596952D03*
X343418Y584252D03*
X343418Y571552D03*
X404886Y571552D03*
X404886Y584252D03*
X404886Y596952D03*
X404886Y609652D03*
X404886Y622352D03*
X404886Y635052D03*
X404886Y647752D03*
X340878Y515436D03*
X340878Y502736D03*
X340878Y490036D03*
X340878Y477336D03*
X340878Y464636D03*
X340878Y451936D03*
X340878Y439236D03*
X402346Y439236D03*
X402346Y451936D03*
X402346Y464636D03*
X402346Y477336D03*
X402346Y490036D03*
X402346Y502736D03*
X402346Y515436D03*
D15*
X448160Y647700D03*
X461160Y647700D03*
D47*
X457454Y208280D03*
X457454Y220980D03*
X457454Y233680D03*
X457454Y246380D03*
X457454Y259080D03*
X457454Y271780D03*
X457454Y284480D03*
X395986Y284480D03*
X395986Y271780D03*
X395986Y259080D03*
X395986Y246380D03*
X395986Y233680D03*
X395986Y220980D03*
X395986Y208280D03*
D15*
X364640Y208280D03*
X351640Y208280D03*
D48*
X685140Y254200D03*
X675640Y254200D03*
X666140Y254200D03*
X666140Y228300D03*
X685140Y228300D03*
X614020Y254200D03*
X604520Y254200D03*
X595020Y254200D03*
X595020Y228300D03*
X614020Y228300D03*
D17*
X713740Y219860D03*
X713740Y206860D03*
D15*
X613560Y201930D03*
X600560Y201930D03*
X461160Y622300D03*
X448160Y622300D03*
D17*
X304800Y605940D03*
X304800Y592940D03*
X713740Y242420D03*
X713740Y255420D03*
D15*
X551330Y210820D03*
X538330Y210820D03*
D17*
X637540Y239880D03*
X637540Y252880D03*
X524510Y246230D03*
X524510Y259230D03*
X772160Y338224D03*
X772160Y325224D03*
D15*
X652930Y290830D03*
X639930Y290830D03*
X400200Y535940D03*
X387200Y535940D03*
D17*
X304800Y649120D03*
X304800Y636120D03*
X906780Y587860D03*
X906780Y600860D03*
D15*
X455780Y448310D03*
X468780Y448310D03*
X448160Y488950D03*
X461160Y488950D03*
D49*
X340360Y327406D03*
X353060Y327406D03*
X365760Y327406D03*
X378460Y327406D03*
X391160Y327406D03*
X403860Y327406D03*
X416560Y327406D03*
X416560Y388874D03*
X403860Y388874D03*
X391160Y388874D03*
X378460Y388874D03*
X365760Y388874D03*
X353060Y388874D03*
X340360Y388874D03*
D15*
X322730Y389890D03*
X309730Y389890D03*
X641200Y274320D03*
X654200Y274320D03*
X570080Y271780D03*
X583080Y271780D03*
D50*
X178680Y683484D03*
D51*
X178680Y743484D03*
X129680Y712984D03*
M02*
