G04 EAGLE Gerber RS-274X export*
G75*
%MOMM*%
%FSLAX34Y34*%
%LPD*%
%IN*%
%IPPOS*%
%AMOC8*
5,1,8,0,0,1.08239X$1,22.5*%
G01*
%ADD10C,0.254000*%


D10*
X0Y30000D02*
X114Y27385D01*
X456Y24791D01*
X1022Y22235D01*
X1809Y19739D01*
X2811Y17321D01*
X4019Y15000D01*
X5425Y12793D01*
X7019Y10716D01*
X8787Y8787D01*
X10716Y7019D01*
X12793Y5425D01*
X15000Y4019D01*
X17321Y2811D01*
X19739Y1809D01*
X22235Y1022D01*
X24791Y456D01*
X27385Y114D01*
X30000Y0D01*
X1300000Y0D01*
X1302615Y114D01*
X1305209Y456D01*
X1307765Y1022D01*
X1310261Y1809D01*
X1312679Y2811D01*
X1315000Y4019D01*
X1317207Y5425D01*
X1319284Y7019D01*
X1321213Y8787D01*
X1322981Y10716D01*
X1324575Y12793D01*
X1325981Y15000D01*
X1327189Y17321D01*
X1328191Y19739D01*
X1328978Y22235D01*
X1329544Y24791D01*
X1329886Y27385D01*
X1330000Y30000D01*
X1330000Y60000D01*
X1310000Y50000D01*
X1310000Y145000D01*
X1330000Y135000D01*
X1330000Y217500D01*
X1310000Y207500D01*
X1310000Y302500D01*
X1330000Y292500D01*
X1330000Y320000D01*
X1329886Y322615D01*
X1329544Y325209D01*
X1328978Y327765D01*
X1328191Y330261D01*
X1327189Y332679D01*
X1325981Y335000D01*
X1324575Y337207D01*
X1322981Y339284D01*
X1321213Y341213D01*
X1319284Y342981D01*
X1317207Y344575D01*
X1315000Y345981D01*
X1312679Y347189D01*
X1310261Y348191D01*
X1307765Y348978D01*
X1305209Y349544D01*
X1302615Y349886D01*
X1300000Y350000D01*
X30000Y350000D01*
X27385Y349886D01*
X24791Y349544D01*
X22235Y348978D01*
X19739Y348191D01*
X17321Y347189D01*
X15000Y345981D01*
X12793Y344575D01*
X10716Y342981D01*
X8787Y341213D01*
X7019Y339284D01*
X5425Y337207D01*
X4019Y335000D01*
X2811Y332679D01*
X1809Y330261D01*
X1022Y327765D01*
X456Y325209D01*
X114Y322615D01*
X0Y320000D01*
X0Y292500D01*
X20000Y302500D01*
X20000Y207500D01*
X0Y217500D01*
X0Y135000D01*
X20000Y145000D01*
X20000Y50000D01*
X0Y60000D01*
X0Y30000D01*
X102700Y129000D02*
X102711Y128739D01*
X102746Y128479D01*
X102802Y128224D01*
X102881Y127974D01*
X102981Y127732D01*
X103102Y127500D01*
X103243Y127279D01*
X103402Y127072D01*
X103579Y126879D01*
X103772Y126702D01*
X103979Y126543D01*
X104200Y126402D01*
X104432Y126281D01*
X104674Y126181D01*
X104924Y126102D01*
X105179Y126046D01*
X105439Y126011D01*
X105700Y126000D01*
X259700Y126000D01*
X259961Y126011D01*
X260221Y126046D01*
X260476Y126102D01*
X260726Y126181D01*
X260968Y126281D01*
X261200Y126402D01*
X261421Y126543D01*
X261628Y126702D01*
X261821Y126879D01*
X261998Y127072D01*
X262157Y127279D01*
X262298Y127500D01*
X262419Y127732D01*
X262519Y127974D01*
X262598Y128224D01*
X262654Y128479D01*
X262689Y128739D01*
X262700Y129000D01*
X262700Y262000D01*
X262689Y262261D01*
X262654Y262521D01*
X262598Y262776D01*
X262519Y263026D01*
X262419Y263268D01*
X262298Y263500D01*
X262157Y263721D01*
X261998Y263928D01*
X261821Y264121D01*
X261628Y264298D01*
X261421Y264457D01*
X261200Y264598D01*
X260968Y264719D01*
X260726Y264819D01*
X260476Y264898D01*
X260221Y264954D01*
X259961Y264989D01*
X259700Y265000D01*
X105700Y265000D01*
X105439Y264989D01*
X105179Y264954D01*
X104924Y264898D01*
X104674Y264819D01*
X104432Y264719D01*
X104200Y264598D01*
X103979Y264457D01*
X103772Y264298D01*
X103579Y264121D01*
X103402Y263928D01*
X103243Y263721D01*
X103102Y263500D01*
X102981Y263268D01*
X102881Y263026D01*
X102802Y262776D01*
X102746Y262521D01*
X102711Y262261D01*
X102700Y262000D01*
X102700Y129000D01*
X322700Y129000D02*
X322711Y128739D01*
X322746Y128479D01*
X322802Y128224D01*
X322881Y127974D01*
X322981Y127732D01*
X323102Y127500D01*
X323243Y127279D01*
X323402Y127072D01*
X323579Y126879D01*
X323772Y126702D01*
X323979Y126543D01*
X324200Y126402D01*
X324432Y126281D01*
X324674Y126181D01*
X324924Y126102D01*
X325179Y126046D01*
X325439Y126011D01*
X325700Y126000D01*
X479700Y126000D01*
X479961Y126011D01*
X480221Y126046D01*
X480476Y126102D01*
X480726Y126181D01*
X480968Y126281D01*
X481200Y126402D01*
X481421Y126543D01*
X481628Y126702D01*
X481821Y126879D01*
X481998Y127072D01*
X482157Y127279D01*
X482298Y127500D01*
X482419Y127732D01*
X482519Y127974D01*
X482598Y128224D01*
X482654Y128479D01*
X482689Y128739D01*
X482700Y129000D01*
X482700Y262000D01*
X482689Y262261D01*
X482654Y262521D01*
X482598Y262776D01*
X482519Y263026D01*
X482419Y263268D01*
X482298Y263500D01*
X482157Y263721D01*
X481998Y263928D01*
X481821Y264121D01*
X481628Y264298D01*
X481421Y264457D01*
X481200Y264598D01*
X480968Y264719D01*
X480726Y264819D01*
X480476Y264898D01*
X480221Y264954D01*
X479961Y264989D01*
X479700Y265000D01*
X325700Y265000D01*
X325439Y264989D01*
X325179Y264954D01*
X324924Y264898D01*
X324674Y264819D01*
X324432Y264719D01*
X324200Y264598D01*
X323979Y264457D01*
X323772Y264298D01*
X323579Y264121D01*
X323402Y263928D01*
X323243Y263721D01*
X323102Y263500D01*
X322981Y263268D01*
X322881Y263026D01*
X322802Y262776D01*
X322746Y262521D01*
X322711Y262261D01*
X322700Y262000D01*
X322700Y129000D01*
X1010644Y180756D02*
X1010569Y178668D01*
X1010420Y176585D01*
X1010197Y174508D01*
X1009900Y172441D01*
X1009529Y170385D01*
X1009085Y168344D01*
X1008568Y166321D01*
X1007980Y164317D01*
X1007320Y162335D01*
X1006591Y160378D01*
X1005791Y158448D01*
X1004924Y156548D01*
X1003989Y154681D01*
X1002988Y152847D01*
X1001922Y151051D01*
X1000793Y149294D01*
X999601Y147578D01*
X998350Y145906D01*
X997039Y144280D01*
X995671Y142701D01*
X994248Y141173D01*
X992771Y139696D01*
X991243Y138273D01*
X989664Y136905D01*
X988038Y135594D01*
X986366Y134343D01*
X984650Y133151D01*
X982893Y132022D01*
X981097Y130956D01*
X979263Y129955D01*
X977396Y129020D01*
X975496Y128153D01*
X973566Y127353D01*
X971609Y126623D01*
X969627Y125964D01*
X967623Y125375D01*
X965599Y124859D01*
X963559Y124415D01*
X961503Y124044D01*
X959436Y123747D01*
X957359Y123524D01*
X955276Y123375D01*
X953188Y123300D01*
X951100Y123300D01*
X949012Y123375D01*
X946929Y123524D01*
X944852Y123747D01*
X942785Y124044D01*
X940729Y124415D01*
X938688Y124859D01*
X936665Y125375D01*
X934661Y125964D01*
X932679Y126623D01*
X930722Y127353D01*
X928792Y128153D01*
X926892Y129020D01*
X925024Y129955D01*
X923191Y130956D01*
X921395Y132022D01*
X919638Y133151D01*
X917922Y134343D01*
X916250Y135594D01*
X914624Y136905D01*
X913045Y138273D01*
X911517Y139696D01*
X910040Y141173D01*
X908616Y142701D01*
X907249Y144280D01*
X905938Y145906D01*
X904686Y147578D01*
X903495Y149294D01*
X902366Y151051D01*
X901300Y152847D01*
X900299Y154681D01*
X899364Y156548D01*
X898497Y158448D01*
X897697Y160378D01*
X896967Y162335D01*
X896308Y164317D01*
X895719Y166321D01*
X895203Y168344D01*
X894759Y170385D01*
X894388Y172441D01*
X894091Y174508D01*
X893867Y176585D01*
X893718Y178668D01*
X893644Y180756D01*
X893644Y182844D01*
X893718Y184932D01*
X893867Y187015D01*
X894091Y189092D01*
X894388Y191159D01*
X894759Y193215D01*
X895203Y195256D01*
X895719Y197279D01*
X896308Y199283D01*
X896967Y201265D01*
X897697Y203222D01*
X898497Y205152D01*
X899364Y207052D01*
X900299Y208919D01*
X901300Y210753D01*
X902366Y212549D01*
X903495Y214306D01*
X904686Y216022D01*
X905938Y217694D01*
X907249Y219320D01*
X908616Y220899D01*
X910040Y222427D01*
X911517Y223904D01*
X913045Y225327D01*
X914624Y226695D01*
X916250Y228006D01*
X917922Y229258D01*
X919638Y230449D01*
X921395Y231578D01*
X923191Y232644D01*
X925024Y233645D01*
X926892Y234580D01*
X928792Y235447D01*
X930722Y236247D01*
X932679Y236977D01*
X934661Y237636D01*
X936665Y238225D01*
X938688Y238741D01*
X940729Y239185D01*
X942785Y239556D01*
X944852Y239853D01*
X946929Y240076D01*
X949012Y240225D01*
X951100Y240300D01*
X953188Y240300D01*
X955276Y240225D01*
X957359Y240076D01*
X959436Y239853D01*
X961503Y239556D01*
X963559Y239185D01*
X965599Y238741D01*
X967623Y238225D01*
X969627Y237636D01*
X971609Y236977D01*
X973566Y236247D01*
X975496Y235447D01*
X977396Y234580D01*
X979263Y233645D01*
X981097Y232644D01*
X982893Y231578D01*
X984650Y230449D01*
X986366Y229258D01*
X988038Y228006D01*
X989664Y226695D01*
X991243Y225327D01*
X992771Y223904D01*
X994248Y222427D01*
X995671Y220899D01*
X997039Y219320D01*
X998350Y217694D01*
X999601Y216022D01*
X1000793Y214306D01*
X1001922Y212549D01*
X1002988Y210753D01*
X1003989Y208919D01*
X1004924Y207052D01*
X1005791Y205152D01*
X1006591Y203222D01*
X1007320Y201265D01*
X1007980Y199283D01*
X1008568Y197279D01*
X1009085Y195256D01*
X1009529Y193215D01*
X1009900Y191159D01*
X1010197Y189092D01*
X1010420Y187015D01*
X1010569Y184932D01*
X1010644Y182844D01*
X1010644Y180756D01*
X677396Y180756D02*
X677321Y178668D01*
X677172Y176585D01*
X676949Y174508D01*
X676652Y172441D01*
X676281Y170385D01*
X675837Y168344D01*
X675320Y166321D01*
X674732Y164317D01*
X674072Y162335D01*
X673343Y160378D01*
X672543Y158448D01*
X671676Y156548D01*
X670741Y154681D01*
X669740Y152847D01*
X668674Y151051D01*
X667545Y149294D01*
X666353Y147578D01*
X665102Y145906D01*
X663791Y144280D01*
X662423Y142701D01*
X661000Y141173D01*
X659523Y139696D01*
X657995Y138273D01*
X656416Y136905D01*
X654790Y135594D01*
X653118Y134343D01*
X651402Y133151D01*
X649645Y132022D01*
X647849Y130956D01*
X646015Y129955D01*
X644148Y129020D01*
X642248Y128153D01*
X640318Y127353D01*
X638361Y126623D01*
X636379Y125964D01*
X634375Y125375D01*
X632351Y124859D01*
X630311Y124415D01*
X628255Y124044D01*
X626188Y123747D01*
X624111Y123524D01*
X622028Y123375D01*
X619940Y123300D01*
X617852Y123300D01*
X615764Y123375D01*
X613681Y123524D01*
X611604Y123747D01*
X609537Y124044D01*
X607481Y124415D01*
X605440Y124859D01*
X603417Y125375D01*
X601413Y125964D01*
X599431Y126623D01*
X597474Y127353D01*
X595544Y128153D01*
X593644Y129020D01*
X591776Y129955D01*
X589943Y130956D01*
X588147Y132022D01*
X586390Y133151D01*
X584674Y134343D01*
X583002Y135594D01*
X581376Y136905D01*
X579797Y138273D01*
X578269Y139696D01*
X576792Y141173D01*
X575368Y142701D01*
X574001Y144280D01*
X572690Y145906D01*
X571438Y147578D01*
X570247Y149294D01*
X569118Y151051D01*
X568052Y152847D01*
X567051Y154681D01*
X566116Y156548D01*
X565249Y158448D01*
X564449Y160378D01*
X563719Y162335D01*
X563060Y164317D01*
X562471Y166321D01*
X561955Y168344D01*
X561511Y170385D01*
X561140Y172441D01*
X560843Y174508D01*
X560619Y176585D01*
X560470Y178668D01*
X560396Y180756D01*
X560396Y182844D01*
X560470Y184932D01*
X560619Y187015D01*
X560843Y189092D01*
X561140Y191159D01*
X561511Y193215D01*
X561955Y195256D01*
X562471Y197279D01*
X563060Y199283D01*
X563719Y201265D01*
X564449Y203222D01*
X565249Y205152D01*
X566116Y207052D01*
X567051Y208919D01*
X568052Y210753D01*
X569118Y212549D01*
X570247Y214306D01*
X571438Y216022D01*
X572690Y217694D01*
X574001Y219320D01*
X575368Y220899D01*
X576792Y222427D01*
X578269Y223904D01*
X579797Y225327D01*
X581376Y226695D01*
X583002Y228006D01*
X584674Y229258D01*
X586390Y230449D01*
X588147Y231578D01*
X589943Y232644D01*
X591776Y233645D01*
X593644Y234580D01*
X595544Y235447D01*
X597474Y236247D01*
X599431Y236977D01*
X601413Y237636D01*
X603417Y238225D01*
X605440Y238741D01*
X607481Y239185D01*
X609537Y239556D01*
X611604Y239853D01*
X613681Y240076D01*
X615764Y240225D01*
X617852Y240300D01*
X619940Y240300D01*
X622028Y240225D01*
X624111Y240076D01*
X626188Y239853D01*
X628255Y239556D01*
X630311Y239185D01*
X632351Y238741D01*
X634375Y238225D01*
X636379Y237636D01*
X638361Y236977D01*
X640318Y236247D01*
X642248Y235447D01*
X644148Y234580D01*
X646015Y233645D01*
X647849Y232644D01*
X649645Y231578D01*
X651402Y230449D01*
X653118Y229258D01*
X654790Y228006D01*
X656416Y226695D01*
X657995Y225327D01*
X659523Y223904D01*
X661000Y222427D01*
X662423Y220899D01*
X663791Y219320D01*
X665102Y217694D01*
X666353Y216022D01*
X667545Y214306D01*
X668674Y212549D01*
X669740Y210753D01*
X670741Y208919D01*
X671676Y207052D01*
X672543Y205152D01*
X673343Y203222D01*
X674072Y201265D01*
X674732Y199283D01*
X675320Y197279D01*
X675837Y195256D01*
X676281Y193215D01*
X676652Y191159D01*
X676949Y189092D01*
X677172Y187015D01*
X677321Y184932D01*
X677396Y182844D01*
X677396Y180756D01*
X843004Y180756D02*
X842929Y178668D01*
X842780Y176585D01*
X842557Y174508D01*
X842260Y172441D01*
X841889Y170385D01*
X841445Y168344D01*
X840928Y166321D01*
X840340Y164317D01*
X839680Y162335D01*
X838951Y160378D01*
X838151Y158448D01*
X837284Y156548D01*
X836349Y154681D01*
X835348Y152847D01*
X834282Y151051D01*
X833153Y149294D01*
X831961Y147578D01*
X830710Y145906D01*
X829399Y144280D01*
X828031Y142701D01*
X826608Y141173D01*
X825131Y139696D01*
X823603Y138273D01*
X822024Y136905D01*
X820398Y135594D01*
X818726Y134343D01*
X817010Y133151D01*
X815253Y132022D01*
X813457Y130956D01*
X811623Y129955D01*
X809756Y129020D01*
X807856Y128153D01*
X805926Y127353D01*
X803969Y126623D01*
X801987Y125964D01*
X799983Y125375D01*
X797959Y124859D01*
X795919Y124415D01*
X793863Y124044D01*
X791796Y123747D01*
X789719Y123524D01*
X787636Y123375D01*
X785548Y123300D01*
X783460Y123300D01*
X781372Y123375D01*
X779289Y123524D01*
X777212Y123747D01*
X775145Y124044D01*
X773089Y124415D01*
X771048Y124859D01*
X769025Y125375D01*
X767021Y125964D01*
X765039Y126623D01*
X763082Y127353D01*
X761152Y128153D01*
X759252Y129020D01*
X757384Y129955D01*
X755551Y130956D01*
X753755Y132022D01*
X751998Y133151D01*
X750282Y134343D01*
X748610Y135594D01*
X746984Y136905D01*
X745405Y138273D01*
X743877Y139696D01*
X742400Y141173D01*
X740976Y142701D01*
X739609Y144280D01*
X738298Y145906D01*
X737046Y147578D01*
X735855Y149294D01*
X734726Y151051D01*
X733660Y152847D01*
X732659Y154681D01*
X731724Y156548D01*
X730857Y158448D01*
X730057Y160378D01*
X729327Y162335D01*
X728668Y164317D01*
X728079Y166321D01*
X727563Y168344D01*
X727119Y170385D01*
X726748Y172441D01*
X726451Y174508D01*
X726227Y176585D01*
X726078Y178668D01*
X726004Y180756D01*
X726004Y182844D01*
X726078Y184932D01*
X726227Y187015D01*
X726451Y189092D01*
X726748Y191159D01*
X727119Y193215D01*
X727563Y195256D01*
X728079Y197279D01*
X728668Y199283D01*
X729327Y201265D01*
X730057Y203222D01*
X730857Y205152D01*
X731724Y207052D01*
X732659Y208919D01*
X733660Y210753D01*
X734726Y212549D01*
X735855Y214306D01*
X737046Y216022D01*
X738298Y217694D01*
X739609Y219320D01*
X740976Y220899D01*
X742400Y222427D01*
X743877Y223904D01*
X745405Y225327D01*
X746984Y226695D01*
X748610Y228006D01*
X750282Y229258D01*
X751998Y230449D01*
X753755Y231578D01*
X755551Y232644D01*
X757384Y233645D01*
X759252Y234580D01*
X761152Y235447D01*
X763082Y236247D01*
X765039Y236977D01*
X767021Y237636D01*
X769025Y238225D01*
X771048Y238741D01*
X773089Y239185D01*
X775145Y239556D01*
X777212Y239853D01*
X779289Y240076D01*
X781372Y240225D01*
X783460Y240300D01*
X785548Y240300D01*
X787636Y240225D01*
X789719Y240076D01*
X791796Y239853D01*
X793863Y239556D01*
X795919Y239185D01*
X797959Y238741D01*
X799983Y238225D01*
X801987Y237636D01*
X803969Y236977D01*
X805926Y236247D01*
X807856Y235447D01*
X809756Y234580D01*
X811623Y233645D01*
X813457Y232644D01*
X815253Y231578D01*
X817010Y230449D01*
X818726Y229258D01*
X820398Y228006D01*
X822024Y226695D01*
X823603Y225327D01*
X825131Y223904D01*
X826608Y222427D01*
X828031Y220899D01*
X829399Y219320D01*
X830710Y217694D01*
X831961Y216022D01*
X833153Y214306D01*
X834282Y212549D01*
X835348Y210753D01*
X836349Y208919D01*
X837284Y207052D01*
X838151Y205152D01*
X838951Y203222D01*
X839680Y201265D01*
X840340Y199283D01*
X840928Y197279D01*
X841445Y195256D01*
X841889Y193215D01*
X842260Y191159D01*
X842557Y189092D01*
X842780Y187015D01*
X842929Y184932D01*
X843004Y182844D01*
X843004Y180756D01*
X1230980Y166364D02*
X1230904Y165296D01*
X1230751Y164235D01*
X1230523Y163188D01*
X1230221Y162160D01*
X1229847Y161156D01*
X1229402Y160181D01*
X1228888Y159241D01*
X1228309Y158340D01*
X1227667Y157482D01*
X1226965Y156672D01*
X1226208Y155915D01*
X1225398Y155213D01*
X1224540Y154571D01*
X1223639Y153992D01*
X1222699Y153478D01*
X1221724Y153033D01*
X1220720Y152659D01*
X1219692Y152357D01*
X1218645Y152129D01*
X1217584Y151976D01*
X1216516Y151900D01*
X1215444Y151900D01*
X1214376Y151976D01*
X1213315Y152129D01*
X1212268Y152357D01*
X1211240Y152659D01*
X1210236Y153033D01*
X1209261Y153478D01*
X1208321Y153992D01*
X1207420Y154571D01*
X1206562Y155213D01*
X1205752Y155915D01*
X1204995Y156672D01*
X1204293Y157482D01*
X1203651Y158340D01*
X1203072Y159241D01*
X1202558Y160181D01*
X1202113Y161156D01*
X1201739Y162160D01*
X1201437Y163188D01*
X1201209Y164235D01*
X1201056Y165296D01*
X1200980Y166364D01*
X1200980Y167436D01*
X1201056Y168504D01*
X1201209Y169565D01*
X1201437Y170612D01*
X1201739Y171640D01*
X1202113Y172644D01*
X1202558Y173619D01*
X1203072Y174559D01*
X1203651Y175460D01*
X1204293Y176318D01*
X1204995Y177128D01*
X1205752Y177885D01*
X1206562Y178587D01*
X1207420Y179229D01*
X1208321Y179808D01*
X1209261Y180322D01*
X1210236Y180767D01*
X1211240Y181141D01*
X1212268Y181443D01*
X1213315Y181671D01*
X1214376Y181824D01*
X1215444Y181900D01*
X1216516Y181900D01*
X1217584Y181824D01*
X1218645Y181671D01*
X1219692Y181443D01*
X1220720Y181141D01*
X1221724Y180767D01*
X1222699Y180322D01*
X1223639Y179808D01*
X1224540Y179229D01*
X1225398Y178587D01*
X1226208Y177885D01*
X1226965Y177128D01*
X1227667Y176318D01*
X1228309Y175460D01*
X1228888Y174559D01*
X1229402Y173619D01*
X1229847Y172644D01*
X1230221Y171640D01*
X1230523Y170612D01*
X1230751Y169565D01*
X1230904Y168504D01*
X1230980Y167436D01*
X1230980Y166364D01*
X1230980Y212064D02*
X1230904Y210996D01*
X1230751Y209935D01*
X1230523Y208888D01*
X1230221Y207860D01*
X1229847Y206856D01*
X1229402Y205881D01*
X1228888Y204941D01*
X1228309Y204040D01*
X1227667Y203182D01*
X1226965Y202372D01*
X1226208Y201615D01*
X1225398Y200913D01*
X1224540Y200271D01*
X1223639Y199692D01*
X1222699Y199178D01*
X1221724Y198733D01*
X1220720Y198359D01*
X1219692Y198057D01*
X1218645Y197829D01*
X1217584Y197676D01*
X1216516Y197600D01*
X1215444Y197600D01*
X1214376Y197676D01*
X1213315Y197829D01*
X1212268Y198057D01*
X1211240Y198359D01*
X1210236Y198733D01*
X1209261Y199178D01*
X1208321Y199692D01*
X1207420Y200271D01*
X1206562Y200913D01*
X1205752Y201615D01*
X1204995Y202372D01*
X1204293Y203182D01*
X1203651Y204040D01*
X1203072Y204941D01*
X1202558Y205881D01*
X1202113Y206856D01*
X1201739Y207860D01*
X1201437Y208888D01*
X1201209Y209935D01*
X1201056Y210996D01*
X1200980Y212064D01*
X1200980Y213136D01*
X1201056Y214204D01*
X1201209Y215265D01*
X1201437Y216312D01*
X1201739Y217340D01*
X1202113Y218344D01*
X1202558Y219319D01*
X1203072Y220259D01*
X1203651Y221160D01*
X1204293Y222018D01*
X1204995Y222828D01*
X1205752Y223585D01*
X1206562Y224287D01*
X1207420Y224929D01*
X1208321Y225508D01*
X1209261Y226022D01*
X1210236Y226467D01*
X1211240Y226841D01*
X1212268Y227143D01*
X1213315Y227371D01*
X1214376Y227524D01*
X1215444Y227600D01*
X1216516Y227600D01*
X1217584Y227524D01*
X1218645Y227371D01*
X1219692Y227143D01*
X1220720Y226841D01*
X1221724Y226467D01*
X1222699Y226022D01*
X1223639Y225508D01*
X1224540Y224929D01*
X1225398Y224287D01*
X1226208Y223585D01*
X1226965Y222828D01*
X1227667Y222018D01*
X1228309Y221160D01*
X1228888Y220259D01*
X1229402Y219319D01*
X1229847Y218344D01*
X1230221Y217340D01*
X1230523Y216312D01*
X1230751Y215265D01*
X1230904Y214204D01*
X1230980Y213136D01*
X1230980Y212064D01*
X1177640Y212064D02*
X1177564Y210996D01*
X1177411Y209935D01*
X1177183Y208888D01*
X1176881Y207860D01*
X1176507Y206856D01*
X1176062Y205881D01*
X1175548Y204941D01*
X1174969Y204040D01*
X1174327Y203182D01*
X1173625Y202372D01*
X1172868Y201615D01*
X1172058Y200913D01*
X1171200Y200271D01*
X1170299Y199692D01*
X1169359Y199178D01*
X1168384Y198733D01*
X1167380Y198359D01*
X1166352Y198057D01*
X1165305Y197829D01*
X1164244Y197676D01*
X1163176Y197600D01*
X1162104Y197600D01*
X1161036Y197676D01*
X1159975Y197829D01*
X1158928Y198057D01*
X1157900Y198359D01*
X1156896Y198733D01*
X1155921Y199178D01*
X1154981Y199692D01*
X1154080Y200271D01*
X1153222Y200913D01*
X1152412Y201615D01*
X1151655Y202372D01*
X1150953Y203182D01*
X1150311Y204040D01*
X1149732Y204941D01*
X1149218Y205881D01*
X1148773Y206856D01*
X1148399Y207860D01*
X1148097Y208888D01*
X1147869Y209935D01*
X1147716Y210996D01*
X1147640Y212064D01*
X1147640Y213136D01*
X1147716Y214204D01*
X1147869Y215265D01*
X1148097Y216312D01*
X1148399Y217340D01*
X1148773Y218344D01*
X1149218Y219319D01*
X1149732Y220259D01*
X1150311Y221160D01*
X1150953Y222018D01*
X1151655Y222828D01*
X1152412Y223585D01*
X1153222Y224287D01*
X1154080Y224929D01*
X1154981Y225508D01*
X1155921Y226022D01*
X1156896Y226467D01*
X1157900Y226841D01*
X1158928Y227143D01*
X1159975Y227371D01*
X1161036Y227524D01*
X1162104Y227600D01*
X1163176Y227600D01*
X1164244Y227524D01*
X1165305Y227371D01*
X1166352Y227143D01*
X1167380Y226841D01*
X1168384Y226467D01*
X1169359Y226022D01*
X1170299Y225508D01*
X1171200Y224929D01*
X1172058Y224287D01*
X1172868Y223585D01*
X1173625Y222828D01*
X1174327Y222018D01*
X1174969Y221160D01*
X1175548Y220259D01*
X1176062Y219319D01*
X1176507Y218344D01*
X1176881Y217340D01*
X1177183Y216312D01*
X1177411Y215265D01*
X1177564Y214204D01*
X1177640Y213136D01*
X1177640Y212064D01*
X1177640Y166364D02*
X1177564Y165296D01*
X1177411Y164235D01*
X1177183Y163188D01*
X1176881Y162160D01*
X1176507Y161156D01*
X1176062Y160181D01*
X1175548Y159241D01*
X1174969Y158340D01*
X1174327Y157482D01*
X1173625Y156672D01*
X1172868Y155915D01*
X1172058Y155213D01*
X1171200Y154571D01*
X1170299Y153992D01*
X1169359Y153478D01*
X1168384Y153033D01*
X1167380Y152659D01*
X1166352Y152357D01*
X1165305Y152129D01*
X1164244Y151976D01*
X1163176Y151900D01*
X1162104Y151900D01*
X1161036Y151976D01*
X1159975Y152129D01*
X1158928Y152357D01*
X1157900Y152659D01*
X1156896Y153033D01*
X1155921Y153478D01*
X1154981Y153992D01*
X1154080Y154571D01*
X1153222Y155213D01*
X1152412Y155915D01*
X1151655Y156672D01*
X1150953Y157482D01*
X1150311Y158340D01*
X1149732Y159241D01*
X1149218Y160181D01*
X1148773Y161156D01*
X1148399Y162160D01*
X1148097Y163188D01*
X1147869Y164235D01*
X1147716Y165296D01*
X1147640Y166364D01*
X1147640Y167436D01*
X1147716Y168504D01*
X1147869Y169565D01*
X1148097Y170612D01*
X1148399Y171640D01*
X1148773Y172644D01*
X1149218Y173619D01*
X1149732Y174559D01*
X1150311Y175460D01*
X1150953Y176318D01*
X1151655Y177128D01*
X1152412Y177885D01*
X1153222Y178587D01*
X1154080Y179229D01*
X1154981Y179808D01*
X1155921Y180322D01*
X1156896Y180767D01*
X1157900Y181141D01*
X1158928Y181443D01*
X1159975Y181671D01*
X1161036Y181824D01*
X1162104Y181900D01*
X1163176Y181900D01*
X1164244Y181824D01*
X1165305Y181671D01*
X1166352Y181443D01*
X1167380Y181141D01*
X1168384Y180767D01*
X1169359Y180322D01*
X1170299Y179808D01*
X1171200Y179229D01*
X1172058Y178587D01*
X1172868Y177885D01*
X1173625Y177128D01*
X1174327Y176318D01*
X1174969Y175460D01*
X1175548Y174559D01*
X1176062Y173619D01*
X1176507Y172644D01*
X1176881Y171640D01*
X1177183Y170612D01*
X1177411Y169565D01*
X1177564Y168504D01*
X1177640Y167436D01*
X1177640Y166364D01*
M02*
