G04 EAGLE Gerber RS-274X export*
G75*
%MOMM*%
%FSLAX34Y34*%
%LPD*%
%INSilkscreen Top*%
%IPPOS*%
%AMOC8*
5,1,8,0,0,1.08239X$1,22.5*%
G01*
%ADD10C,0.355600*%
%ADD11R,0.631700X0.011488*%
%ADD12R,5.973000X0.011488*%
%ADD13R,5.973000X0.011475*%
%ADD14R,0.631700X0.011475*%
%ADD15R,1.114200X0.011475*%
%ADD16R,1.114200X0.011488*%
%ADD17R,5.973000X0.011481*%
%ADD18R,0.631700X0.011481*%
%ADD19R,1.114200X0.011481*%
%ADD20R,0.149400X0.011488*%
%ADD21R,0.149300X0.011488*%
%ADD22R,0.034400X0.011488*%
%ADD23R,0.057400X0.011488*%
%ADD24R,0.046000X0.011488*%
%ADD25R,0.034500X0.011488*%
%ADD26R,0.321700X0.011481*%
%ADD27R,0.321600X0.011481*%
%ADD28R,0.022900X0.011481*%
%ADD29R,0.023000X0.011481*%
%ADD30R,0.425000X0.011488*%
%ADD31R,0.023000X0.011488*%
%ADD32R,0.011500X0.011488*%
%ADD33R,0.022900X0.011488*%
%ADD34R,0.505400X0.011488*%
%ADD35R,0.011400X0.011488*%
%ADD36R,0.574300X0.011475*%
%ADD37R,0.574400X0.011475*%
%ADD38R,0.011500X0.011475*%
%ADD39R,0.022900X0.011475*%
%ADD40R,0.620300X0.011488*%
%ADD41R,0.631800X0.011488*%
%ADD42R,0.620200X0.011488*%
%ADD43R,0.677700X0.011488*%
%ADD44R,0.689200X0.011488*%
%ADD45R,0.620300X0.011475*%
%ADD46R,0.723600X0.011475*%
%ADD47R,0.631800X0.011475*%
%ADD48R,0.620200X0.011475*%
%ADD49R,0.746600X0.011475*%
%ADD50R,0.011400X0.011475*%
%ADD51R,0.769600X0.011488*%
%ADD52R,0.781000X0.011488*%
%ADD53R,0.620300X0.011481*%
%ADD54R,0.815600X0.011481*%
%ADD55R,0.631800X0.011481*%
%ADD56R,0.620200X0.011481*%
%ADD57R,0.815500X0.011481*%
%ADD58R,0.011500X0.011481*%
%ADD59R,0.011400X0.011481*%
%ADD60R,0.838500X0.011488*%
%ADD61R,0.861500X0.011488*%
%ADD62R,0.884400X0.011488*%
%ADD63R,0.896000X0.011488*%
%ADD64R,0.918900X0.011481*%
%ADD65R,0.930400X0.011481*%
%ADD66R,0.941900X0.011488*%
%ADD67R,0.964900X0.011488*%
%ADD68R,0.976400X0.011488*%
%ADD69R,0.987800X0.011488*%
%ADD70R,0.999300X0.011475*%
%ADD71R,1.010800X0.011475*%
%ADD72R,1.022300X0.011488*%
%ADD73R,1.045300X0.011488*%
%ADD74R,1.068200X0.011488*%
%ADD75R,1.079700X0.011475*%
%ADD76R,1.091200X0.011475*%
%ADD77R,1.102700X0.011488*%
%ADD78R,1.125700X0.011488*%
%ADD79R,1.768900X0.011488*%
%ADD80R,1.137100X0.011481*%
%ADD81R,1.780400X0.011481*%
%ADD82R,1.791900X0.011488*%
%ADD83R,1.803400X0.011488*%
%ADD84R,1.814800X0.011488*%
%ADD85R,1.814900X0.011481*%
%ADD86R,1.826300X0.011481*%
%ADD87R,1.826400X0.011488*%
%ADD88R,1.826300X0.011488*%
%ADD89R,1.837900X0.011475*%
%ADD90R,1.837800X0.011475*%
%ADD91R,1.849400X0.011488*%
%ADD92R,1.849300X0.011488*%
%ADD93R,1.860800X0.011488*%
%ADD94R,1.860800X0.011475*%
%ADD95R,1.872300X0.011475*%
%ADD96R,1.872300X0.011488*%
%ADD97R,1.883800X0.011488*%
%ADD98R,1.895300X0.011488*%
%ADD99R,1.895300X0.011481*%
%ADD100R,1.906800X0.011488*%
%ADD101R,1.906700X0.011488*%
%ADD102R,1.918200X0.011488*%
%ADD103R,1.918300X0.011481*%
%ADD104R,1.918200X0.011481*%
%ADD105R,1.929800X0.011488*%
%ADD106R,1.929700X0.011488*%
%ADD107R,1.941300X0.011481*%
%ADD108R,1.941200X0.011481*%
%ADD109R,1.941300X0.011488*%
%ADD110R,1.952700X0.011488*%
%ADD111R,1.952700X0.011475*%
%ADD112R,1.964200X0.011475*%
%ADD113R,1.964200X0.011488*%
%ADD114R,1.975700X0.011488*%
%ADD115R,1.975700X0.011475*%
%ADD116R,1.987100X0.011488*%
%ADD117R,1.987200X0.011481*%
%ADD118R,1.987100X0.011481*%
%ADD119R,0.907400X0.011488*%
%ADD120R,0.930400X0.011488*%
%ADD121R,0.895900X0.011488*%
%ADD122R,0.057500X0.011488*%
%ADD123R,0.850000X0.011488*%
%ADD124R,0.827000X0.011481*%
%ADD125R,0.861500X0.011481*%
%ADD126R,0.850000X0.011481*%
%ADD127R,0.804100X0.011488*%
%ADD128R,0.838600X0.011488*%
%ADD129R,0.827000X0.011488*%
%ADD130R,0.804000X0.011488*%
%ADD131R,0.792600X0.011488*%
%ADD132R,0.815600X0.011488*%
%ADD133R,0.815500X0.011488*%
%ADD134R,0.792500X0.011488*%
%ADD135R,0.781100X0.011475*%
%ADD136R,0.792600X0.011475*%
%ADD137R,0.769600X0.011475*%
%ADD138R,0.781100X0.011488*%
%ADD139R,0.758100X0.011488*%
%ADD140R,0.746700X0.011475*%
%ADD141R,0.735100X0.011475*%
%ADD142R,0.746600X0.011488*%
%ADD143R,0.735200X0.011488*%
%ADD144R,0.735100X0.011488*%
%ADD145R,0.723700X0.011488*%
%ADD146R,0.723600X0.011488*%
%ADD147R,0.723600X0.011481*%
%ADD148R,0.712200X0.011481*%
%ADD149R,0.712100X0.011481*%
%ADD150R,0.723700X0.011481*%
%ADD151R,0.712100X0.011488*%
%ADD152R,0.700700X0.011488*%
%ADD153R,0.712200X0.011488*%
%ADD154R,0.700600X0.011488*%
%ADD155R,0.689200X0.011481*%
%ADD156R,0.700700X0.011481*%
%ADD157R,0.689200X0.011475*%
%ADD158R,0.666300X0.011475*%
%ADD159R,0.666200X0.011475*%
%ADD160R,0.666300X0.011488*%
%ADD161R,0.666200X0.011488*%
%ADD162R,0.654800X0.011488*%
%ADD163R,0.654700X0.011488*%
%ADD164R,0.677700X0.011475*%
%ADD165R,0.654800X0.011475*%
%ADD166R,0.654700X0.011475*%
%ADD167R,0.643300X0.011488*%
%ADD168R,0.643200X0.011488*%
%ADD169R,0.666200X0.011481*%
%ADD170R,0.666300X0.011481*%
%ADD171R,0.654700X0.011481*%
%ADD172R,0.654800X0.011481*%
%ADD173R,0.608800X0.011488*%
%ADD174R,0.608800X0.011475*%
%ADD175R,0.608800X0.011481*%
%ADD176R,0.643200X0.011481*%
%ADD177R,0.643200X0.011475*%
%ADD178R,0.643300X0.011481*%
%ADD179R,0.677700X0.011481*%
%ADD180R,0.700600X0.011475*%
%ADD181R,0.712100X0.011475*%
%ADD182R,0.700700X0.011475*%
%ADD183R,0.735100X0.011481*%
%ADD184R,0.769600X0.011481*%
%ADD185R,0.746700X0.011488*%
%ADD186R,0.758100X0.011481*%
%ADD187R,0.861400X0.011488*%
%ADD188R,0.068900X0.011488*%
%ADD189R,0.792600X0.011481*%
%ADD190R,0.895900X0.011481*%
%ADD191R,0.103400X0.011481*%
%ADD192R,0.792500X0.011481*%
%ADD193R,1.045200X0.011488*%
%ADD194R,0.252700X0.011488*%
%ADD195R,0.861500X0.011475*%
%ADD196R,0.896000X0.011475*%
%ADD197R,1.320900X0.011475*%
%ADD198R,0.895900X0.011475*%
%ADD199R,0.023000X0.011475*%
%ADD200R,1.320900X0.011488*%
%ADD201R,1.987200X0.011488*%
%ADD202R,0.838500X0.011475*%
%ADD203R,0.792500X0.011475*%
%ADD204R,1.987200X0.011475*%
%ADD205R,0.884500X0.011488*%
%ADD206R,0.045900X0.011488*%
%ADD207R,1.837800X0.011481*%
%ADD208R,1.975700X0.011481*%
%ADD209R,1.320900X0.011481*%
%ADD210R,1.964200X0.011481*%
%ADD211R,1.837800X0.011488*%
%ADD212R,1.952700X0.011481*%
%ADD213R,1.941200X0.011488*%
%ADD214R,1.826400X0.011475*%
%ADD215R,1.929800X0.011475*%
%ADD216R,1.929700X0.011475*%
%ADD217R,1.814900X0.011488*%
%ADD218R,1.918300X0.011488*%
%ADD219R,1.814900X0.011475*%
%ADD220R,1.906800X0.011475*%
%ADD221R,1.906700X0.011475*%
%ADD222R,1.791900X0.011481*%
%ADD223R,1.883800X0.011481*%
%ADD224R,1.780400X0.011488*%
%ADD225R,1.860800X0.011481*%
%ADD226R,1.768900X0.011475*%
%ADD227R,1.757400X0.011488*%
%ADD228R,1.114100X0.011475*%
%ADD229R,1.803400X0.011475*%
%ADD230R,1.091300X0.011488*%
%ADD231R,1.068300X0.011488*%
%ADD232R,1.137200X0.011488*%
%ADD233R,1.045300X0.011481*%
%ADD234R,1.769000X0.011481*%
%ADD235R,1.033800X0.011488*%
%ADD236R,0.597300X0.011488*%
%ADD237R,1.010800X0.011488*%
%ADD238R,1.091200X0.011488*%
%ADD239R,0.585800X0.011488*%
%ADD240R,0.987800X0.011481*%
%ADD241R,1.068200X0.011481*%
%ADD242R,0.574300X0.011481*%
%ADD243R,0.964800X0.011488*%
%ADD244R,0.562800X0.011488*%
%ADD245R,0.941800X0.011488*%
%ADD246R,0.551300X0.011488*%
%ADD247R,0.999300X0.011488*%
%ADD248R,0.907500X0.011481*%
%ADD249R,0.987900X0.011481*%
%ADD250R,0.539900X0.011481*%
%ADD251R,0.964900X0.011481*%
%ADD252R,0.953400X0.011488*%
%ADD253R,0.528400X0.011488*%
%ADD254R,0.907500X0.011488*%
%ADD255R,0.815500X0.011475*%
%ADD256R,0.884400X0.011475*%
%ADD257R,0.493900X0.011475*%
%ADD258R,0.873000X0.011475*%
%ADD259R,0.470900X0.011488*%
%ADD260R,0.448000X0.011488*%
%ADD261R,0.425000X0.011475*%
%ADD262R,0.402000X0.011488*%
%ADD263R,0.608700X0.011481*%
%ADD264R,0.689100X0.011481*%
%ADD265R,0.367600X0.011481*%
%ADD266R,0.551400X0.011488*%
%ADD267R,0.333100X0.011488*%
%ADD268R,0.482400X0.011488*%
%ADD269R,0.574300X0.011488*%
%ADD270R,0.287200X0.011488*%
%ADD271R,0.562900X0.011488*%
%ADD272R,0.402100X0.011481*%
%ADD273R,0.493900X0.011481*%
%ADD274R,0.229700X0.011481*%
%ADD275R,0.482400X0.011481*%
%ADD276R,0.264100X0.011488*%
%ADD277R,0.413500X0.011488*%
%ADD278R,0.402100X0.011488*%
%ADD279R,0.310200X0.011488*%
%ADD280R,0.298600X0.011488*%
%ADD281R,0.091900X0.011475*%
%ADD282R,0.057400X0.011475*%
%ADD283R,0.068900X0.011475*%
%ADD284R,0.057500X0.011475*%
%ADD285C,0.203200*%
%ADD286C,0.330200*%


D10*
X155260Y289318D02*
X152040Y292539D01*
X145600Y292539D01*
X142380Y289318D01*
X142380Y276438D01*
X145600Y273218D01*
X152040Y273218D01*
X155260Y276438D01*
X163429Y273218D02*
X163429Y286098D01*
X169869Y292539D01*
X176309Y286098D01*
X176309Y273218D01*
X176309Y282878D02*
X163429Y282878D01*
X184478Y273218D02*
X184478Y292539D01*
X190918Y286098D01*
X197358Y292539D01*
X197358Y273218D01*
X205527Y276438D02*
X205527Y289318D01*
X208747Y292539D01*
X215187Y292539D01*
X218408Y289318D01*
X218408Y276438D01*
X215187Y273218D01*
X208747Y273218D01*
X205527Y276438D01*
X218408Y289318D01*
X927856Y273218D02*
X934296Y273218D01*
X931076Y273218D02*
X931076Y292539D01*
X927856Y292539D02*
X934296Y292539D01*
X941889Y292539D02*
X941889Y273218D01*
X954769Y273218D02*
X941889Y292539D01*
X954769Y292539D02*
X954769Y273218D01*
X962938Y276438D02*
X962938Y289318D01*
X966158Y292539D01*
X972599Y292539D01*
X975819Y289318D01*
X975819Y276438D01*
X972599Y273218D01*
X966158Y273218D01*
X962938Y276438D01*
X975819Y289318D01*
X375260Y289318D02*
X372040Y292539D01*
X365600Y292539D01*
X362380Y289318D01*
X362380Y276438D01*
X365600Y273218D01*
X372040Y273218D01*
X375260Y276438D01*
X383429Y273218D02*
X383429Y286098D01*
X389869Y292539D01*
X396309Y286098D01*
X396309Y273218D01*
X396309Y282878D02*
X383429Y282878D01*
X404478Y273218D02*
X404478Y292539D01*
X410918Y286098D01*
X417358Y292539D01*
X417358Y273218D01*
X425527Y286098D02*
X431967Y292539D01*
X431967Y273218D01*
X425527Y273218D02*
X438408Y273218D01*
X582796Y292539D02*
X589236Y292539D01*
X582796Y292539D02*
X579576Y289318D01*
X579576Y276438D01*
X582796Y273218D01*
X589236Y273218D01*
X592456Y276438D01*
X592456Y289318D01*
X589236Y292539D01*
X600625Y292539D02*
X600625Y276438D01*
X603845Y273218D01*
X610285Y273218D01*
X613505Y276438D01*
X613505Y292539D01*
X628114Y292539D02*
X628114Y273218D01*
X621674Y292539D02*
X634554Y292539D01*
X642723Y289318D02*
X642723Y276438D01*
X642723Y289318D02*
X645943Y292539D01*
X652383Y292539D01*
X655603Y289318D01*
X655603Y276438D01*
X652383Y273218D01*
X645943Y273218D01*
X642723Y276438D01*
X655603Y289318D01*
X749404Y292539D02*
X755844Y292539D01*
X749404Y292539D02*
X746184Y289318D01*
X746184Y276438D01*
X749404Y273218D01*
X755844Y273218D01*
X759064Y276438D01*
X759064Y289318D01*
X755844Y292539D01*
X767233Y292539D02*
X767233Y276438D01*
X770453Y273218D01*
X776893Y273218D01*
X780113Y276438D01*
X780113Y292539D01*
X794722Y292539D02*
X794722Y273218D01*
X788282Y292539D02*
X801162Y292539D01*
X809331Y286098D02*
X815771Y292539D01*
X815771Y273218D01*
X809331Y273218D02*
X822211Y273218D01*
X1206792Y46102D02*
X1210012Y49322D01*
X1206792Y46102D02*
X1206792Y39662D01*
X1210012Y36442D01*
X1213232Y36442D01*
X1216452Y39662D01*
X1216452Y46102D01*
X1219672Y49322D01*
X1222892Y49322D01*
X1226112Y46102D01*
X1226112Y39662D01*
X1222892Y36442D01*
X1226112Y63931D02*
X1206792Y63931D01*
X1206792Y57491D02*
X1206792Y70372D01*
X1213232Y78540D02*
X1226112Y78540D01*
X1213232Y78540D02*
X1206792Y84981D01*
X1213232Y91421D01*
X1226112Y91421D01*
X1216452Y91421D02*
X1216452Y78540D01*
X1226112Y106030D02*
X1206792Y106030D01*
X1206792Y99590D02*
X1206792Y112470D01*
X1206792Y120639D02*
X1206792Y133519D01*
X1206792Y120639D02*
X1226112Y120639D01*
X1226112Y133519D01*
X1216452Y127079D02*
X1216452Y120639D01*
X1206792Y246508D02*
X1206792Y252948D01*
X1206792Y246508D02*
X1210012Y243288D01*
X1222892Y243288D01*
X1226112Y246508D01*
X1226112Y252948D01*
X1222892Y256168D01*
X1210012Y256168D01*
X1206792Y252948D01*
X1206792Y264337D02*
X1226112Y264337D01*
X1226112Y277218D02*
X1206792Y264337D01*
X1206792Y277218D02*
X1226112Y277218D01*
X1156672Y70372D02*
X1153452Y67152D01*
X1153452Y60711D01*
X1156672Y57491D01*
X1169552Y57491D01*
X1172772Y60711D01*
X1172772Y67152D01*
X1169552Y70372D01*
X1172772Y78540D02*
X1159892Y78540D01*
X1153452Y84981D01*
X1159892Y91421D01*
X1172772Y91421D01*
X1163112Y91421D02*
X1163112Y78540D01*
X1172772Y99590D02*
X1153452Y99590D01*
X1159892Y106030D01*
X1153452Y112470D01*
X1172772Y112470D01*
X1159892Y120639D02*
X1153452Y127079D01*
X1172772Y127079D01*
X1172772Y120639D02*
X1172772Y133519D01*
X1153452Y252948D02*
X1156672Y256168D01*
X1153452Y252948D02*
X1153452Y246508D01*
X1156672Y243288D01*
X1169552Y243288D01*
X1172772Y246508D01*
X1172772Y252948D01*
X1169552Y256168D01*
X1172772Y264337D02*
X1159892Y264337D01*
X1153452Y270777D01*
X1159892Y277218D01*
X1172772Y277218D01*
X1163112Y277218D02*
X1163112Y264337D01*
X1172772Y285386D02*
X1153452Y285386D01*
X1159892Y291827D01*
X1153452Y298267D01*
X1172772Y298267D01*
X1169552Y306436D02*
X1156672Y306436D01*
X1153452Y309656D01*
X1153452Y316096D01*
X1156672Y319316D01*
X1169552Y319316D01*
X1172772Y316096D01*
X1172772Y309656D01*
X1169552Y306436D01*
X1156672Y319316D01*
D11*
X182473Y31845D03*
D12*
X146118Y31960D03*
D11*
X182473Y31960D03*
D13*
X146118Y32075D03*
D14*
X182473Y32075D03*
D15*
X194648Y32075D03*
D12*
X146118Y32190D03*
D11*
X182473Y32190D03*
D16*
X194648Y32190D03*
D12*
X146118Y32305D03*
D11*
X182473Y32305D03*
D16*
X194648Y32305D03*
D13*
X146118Y32420D03*
D14*
X182473Y32420D03*
D15*
X194648Y32420D03*
D12*
X146118Y32534D03*
D11*
X182473Y32534D03*
D16*
X194648Y32534D03*
D17*
X146118Y32649D03*
D18*
X182473Y32649D03*
D19*
X194648Y32649D03*
D12*
X146118Y32764D03*
D11*
X182473Y32764D03*
D16*
X194648Y32764D03*
D12*
X146118Y32879D03*
D11*
X182473Y32879D03*
D16*
X194648Y32879D03*
D17*
X146118Y32994D03*
D18*
X182473Y32994D03*
D19*
X194648Y32994D03*
D12*
X146118Y33109D03*
D11*
X182473Y33109D03*
D16*
X194648Y33109D03*
D12*
X146118Y33224D03*
D11*
X182473Y33224D03*
D16*
X194648Y33224D03*
D13*
X146118Y33339D03*
D14*
X182473Y33339D03*
D15*
X194648Y33339D03*
D12*
X146118Y33453D03*
D11*
X182473Y33453D03*
D16*
X194648Y33453D03*
D12*
X146118Y33568D03*
D11*
X182473Y33568D03*
D16*
X194648Y33568D03*
D13*
X146118Y33683D03*
D14*
X182473Y33683D03*
D15*
X194648Y33683D03*
D12*
X146118Y33798D03*
D11*
X182473Y33798D03*
D16*
X194648Y33798D03*
D12*
X146118Y33913D03*
D11*
X182473Y33913D03*
D16*
X194648Y33913D03*
D17*
X146118Y34028D03*
D18*
X182473Y34028D03*
D19*
X194648Y34028D03*
D12*
X146118Y34143D03*
D11*
X182473Y34143D03*
D16*
X194648Y34143D03*
D12*
X146118Y34257D03*
D11*
X182473Y34257D03*
D16*
X194648Y34257D03*
D17*
X146118Y34372D03*
D18*
X182473Y34372D03*
D19*
X194648Y34372D03*
D12*
X146118Y34487D03*
D11*
X182473Y34487D03*
D16*
X194648Y34487D03*
D13*
X146118Y34602D03*
D14*
X182473Y34602D03*
D15*
X194648Y34602D03*
D12*
X146118Y34717D03*
D11*
X182473Y34717D03*
D16*
X194648Y34717D03*
D12*
X146118Y34832D03*
D11*
X182473Y34832D03*
D16*
X194648Y34832D03*
D13*
X146118Y34947D03*
D14*
X182473Y34947D03*
D15*
X194648Y34947D03*
D12*
X146118Y35061D03*
D11*
X182473Y35061D03*
D16*
X194648Y35061D03*
D12*
X146118Y35176D03*
D11*
X182473Y35176D03*
D16*
X194648Y35176D03*
D17*
X146118Y35291D03*
D18*
X182473Y35291D03*
D19*
X194648Y35291D03*
D12*
X146118Y35406D03*
D11*
X182473Y35406D03*
D16*
X194648Y35406D03*
D12*
X146118Y35521D03*
D11*
X182473Y35521D03*
D16*
X194648Y35521D03*
D17*
X146118Y35636D03*
D18*
X182473Y35636D03*
D19*
X194648Y35636D03*
D12*
X146118Y35751D03*
D11*
X182473Y35751D03*
D16*
X194648Y35751D03*
D12*
X146118Y35866D03*
D11*
X182473Y35866D03*
D16*
X194648Y35866D03*
D17*
X146118Y35980D03*
D18*
X182473Y35980D03*
D19*
X194648Y35980D03*
D12*
X146118Y36095D03*
D11*
X182473Y36095D03*
D16*
X194648Y36095D03*
D12*
X146118Y36210D03*
D11*
X182473Y36210D03*
D16*
X194648Y36210D03*
D13*
X146118Y36325D03*
D14*
X182473Y36325D03*
D15*
X194648Y36325D03*
D12*
X146118Y36440D03*
D11*
X182473Y36440D03*
D16*
X194648Y36440D03*
D12*
X146118Y36555D03*
D11*
X182473Y36555D03*
D16*
X194648Y36555D03*
D13*
X146118Y36670D03*
D14*
X182473Y36670D03*
D15*
X194648Y36670D03*
D12*
X146118Y36784D03*
D11*
X182473Y36784D03*
D16*
X194648Y36784D03*
D17*
X146118Y36899D03*
D18*
X182473Y36899D03*
D19*
X194648Y36899D03*
D12*
X146118Y37014D03*
D11*
X182473Y37014D03*
D16*
X194648Y37014D03*
D12*
X146118Y37129D03*
D11*
X182473Y37129D03*
D16*
X194648Y37129D03*
D17*
X146118Y37244D03*
D18*
X182473Y37244D03*
D19*
X194648Y37244D03*
D12*
X146118Y37359D03*
D11*
X182473Y37359D03*
D16*
X194648Y37359D03*
D12*
X146118Y37474D03*
D11*
X182473Y37474D03*
D16*
X194648Y37474D03*
D13*
X146118Y37589D03*
D14*
X182473Y37589D03*
D15*
X194648Y37589D03*
D11*
X182473Y37703D03*
D16*
X194648Y37703D03*
D12*
X146118Y37703D03*
D11*
X182473Y37818D03*
D16*
X194648Y37818D03*
D14*
X182473Y37933D03*
D11*
X182473Y38048D03*
X182473Y38163D03*
D18*
X182473Y38278D03*
D11*
X182473Y38393D03*
X182473Y38507D03*
D18*
X182473Y38622D03*
D11*
X182473Y38737D03*
D14*
X182473Y38852D03*
D11*
X182473Y38967D03*
X182473Y39082D03*
D14*
X182473Y39197D03*
D11*
X182473Y39311D03*
X182473Y39426D03*
D18*
X182473Y39541D03*
D11*
X182473Y39656D03*
X182473Y39771D03*
D18*
X182473Y39886D03*
D11*
X182473Y40001D03*
D20*
X147209Y40116D03*
D11*
X182473Y40116D03*
D21*
X191203Y40116D03*
D22*
X146290Y40116D03*
D23*
X148243Y40116D03*
D24*
X190226Y40116D03*
D25*
X192122Y40116D03*
D26*
X147267Y40230D03*
D18*
X182473Y40230D03*
D27*
X191145Y40230D03*
D28*
X145544Y40230D03*
X148990Y40230D03*
D29*
X189422Y40230D03*
X192868Y40230D03*
D30*
X147324Y40345D03*
D11*
X182473Y40345D03*
D30*
X191202Y40345D03*
D31*
X145084Y40345D03*
D32*
X149507Y40345D03*
D33*
X188963Y40345D03*
D32*
X193385Y40345D03*
D34*
X147267Y40460D03*
D11*
X182473Y40460D03*
D34*
X191145Y40460D03*
D32*
X144683Y40460D03*
D35*
X149851Y40460D03*
D32*
X188561Y40460D03*
D31*
X193787Y40460D03*
D36*
X147267Y40575D03*
D14*
X182473Y40575D03*
D37*
X191145Y40575D03*
D38*
X144338Y40575D03*
X150196Y40575D03*
X188216Y40575D03*
D39*
X194132Y40575D03*
D40*
X119355Y40690D03*
X131760Y40690D03*
X147267Y40690D03*
D41*
X155939Y40690D03*
D42*
X166449Y40690D03*
D11*
X182473Y40690D03*
X191203Y40690D03*
D32*
X116196Y40690D03*
X122514Y40690D03*
D35*
X128601Y40690D03*
D32*
X144108Y40690D03*
X150426Y40690D03*
X163291Y40690D03*
X169608Y40690D03*
X187987Y40690D03*
X194419Y40690D03*
D40*
X119355Y40805D03*
X131760Y40805D03*
D43*
X147210Y40805D03*
D41*
X155939Y40805D03*
D42*
X166449Y40805D03*
D11*
X182473Y40805D03*
D44*
X191145Y40805D03*
D32*
X116196Y40805D03*
X122514Y40805D03*
D35*
X128601Y40805D03*
D32*
X143764Y40805D03*
D35*
X150655Y40805D03*
D32*
X163291Y40805D03*
X169608Y40805D03*
X187642Y40805D03*
X194649Y40805D03*
D45*
X119355Y40920D03*
X131760Y40920D03*
D46*
X147209Y40920D03*
D47*
X155939Y40920D03*
D48*
X166449Y40920D03*
D14*
X182473Y40920D03*
D49*
X191202Y40920D03*
D38*
X116196Y40920D03*
X122514Y40920D03*
D50*
X128601Y40920D03*
D38*
X143534Y40920D03*
X150885Y40920D03*
X163291Y40920D03*
X169608Y40920D03*
D40*
X119355Y41034D03*
X131760Y41034D03*
D51*
X147209Y41034D03*
D41*
X155939Y41034D03*
D42*
X166449Y41034D03*
D11*
X182473Y41034D03*
D52*
X191145Y41034D03*
D32*
X116196Y41034D03*
X122514Y41034D03*
D35*
X128601Y41034D03*
D32*
X143304Y41034D03*
X151115Y41034D03*
X163291Y41034D03*
X169608Y41034D03*
X195108Y41034D03*
D53*
X119355Y41149D03*
X131760Y41149D03*
D54*
X147209Y41149D03*
D55*
X155939Y41149D03*
D56*
X166449Y41149D03*
D18*
X182473Y41149D03*
D57*
X191203Y41149D03*
D58*
X116196Y41149D03*
X122514Y41149D03*
D59*
X128601Y41149D03*
D58*
X163291Y41149D03*
X169608Y41149D03*
X187068Y41149D03*
X195338Y41149D03*
D40*
X119355Y41264D03*
X131760Y41264D03*
D60*
X147210Y41264D03*
D41*
X155939Y41264D03*
D42*
X166449Y41264D03*
D11*
X182473Y41264D03*
D61*
X191203Y41264D03*
D32*
X116196Y41264D03*
X122514Y41264D03*
D35*
X128601Y41264D03*
D32*
X142960Y41264D03*
X151460Y41264D03*
X163291Y41264D03*
X169608Y41264D03*
X195568Y41264D03*
D40*
X119355Y41379D03*
X131760Y41379D03*
D62*
X147209Y41379D03*
D41*
X155939Y41379D03*
D42*
X166449Y41379D03*
D11*
X182473Y41379D03*
D63*
X191260Y41379D03*
D32*
X116196Y41379D03*
X122514Y41379D03*
D35*
X128601Y41379D03*
D32*
X142730Y41379D03*
X163291Y41379D03*
X169608Y41379D03*
X186723Y41379D03*
D53*
X119355Y41494D03*
X131760Y41494D03*
D64*
X147152Y41494D03*
D55*
X155939Y41494D03*
D56*
X166449Y41494D03*
D18*
X182473Y41494D03*
D65*
X191202Y41494D03*
D58*
X116196Y41494D03*
X122514Y41494D03*
D59*
X128601Y41494D03*
D58*
X163291Y41494D03*
X169608Y41494D03*
X195912Y41494D03*
D40*
X119355Y41609D03*
X131760Y41609D03*
D66*
X147152Y41609D03*
D41*
X155939Y41609D03*
D42*
X166449Y41609D03*
D11*
X182473Y41609D03*
D67*
X191260Y41609D03*
D32*
X116196Y41609D03*
X122514Y41609D03*
D35*
X128601Y41609D03*
D32*
X142385Y41609D03*
X163291Y41609D03*
X169608Y41609D03*
D40*
X119355Y41724D03*
X131760Y41724D03*
D68*
X147094Y41724D03*
D41*
X155939Y41724D03*
D42*
X166449Y41724D03*
D11*
X182473Y41724D03*
D69*
X191260Y41724D03*
D32*
X116196Y41724D03*
X122514Y41724D03*
D35*
X128601Y41724D03*
D32*
X163291Y41724D03*
X169608Y41724D03*
X186264Y41724D03*
X196257Y41724D03*
D45*
X119355Y41839D03*
X131760Y41839D03*
D70*
X147095Y41839D03*
D47*
X155939Y41839D03*
D48*
X166449Y41839D03*
D14*
X182473Y41839D03*
D71*
X191260Y41839D03*
D38*
X116196Y41839D03*
X122514Y41839D03*
D50*
X128601Y41839D03*
D38*
X163291Y41839D03*
X169608Y41839D03*
X186149Y41839D03*
X196372Y41839D03*
D40*
X119355Y41953D03*
X131760Y41953D03*
D72*
X147095Y41953D03*
D41*
X155939Y41953D03*
D42*
X166449Y41953D03*
D11*
X182473Y41953D03*
D73*
X191318Y41953D03*
D32*
X116196Y41953D03*
X122514Y41953D03*
D35*
X128601Y41953D03*
D32*
X141926Y41953D03*
X163291Y41953D03*
X169608Y41953D03*
X186034Y41953D03*
D40*
X119355Y42068D03*
X131760Y42068D03*
D73*
X147095Y42068D03*
D41*
X155939Y42068D03*
D42*
X166449Y42068D03*
D11*
X182473Y42068D03*
D74*
X191317Y42068D03*
D32*
X116196Y42068D03*
X122514Y42068D03*
D35*
X128601Y42068D03*
D32*
X141811Y42068D03*
X163291Y42068D03*
X169608Y42068D03*
X185919Y42068D03*
X196716Y42068D03*
D45*
X119355Y42183D03*
X131760Y42183D03*
D75*
X147037Y42183D03*
D47*
X155939Y42183D03*
D48*
X166449Y42183D03*
D14*
X182473Y42183D03*
D76*
X191317Y42183D03*
D38*
X116196Y42183D03*
X122514Y42183D03*
D50*
X128601Y42183D03*
D38*
X163291Y42183D03*
X169608Y42183D03*
X185804Y42183D03*
X196831Y42183D03*
D40*
X119355Y42298D03*
X131760Y42298D03*
D77*
X147037Y42298D03*
D41*
X155939Y42298D03*
D42*
X166449Y42298D03*
D11*
X182473Y42298D03*
D16*
X191317Y42298D03*
D32*
X116196Y42298D03*
X122514Y42298D03*
D35*
X128601Y42298D03*
D32*
X163291Y42298D03*
X169608Y42298D03*
X185689Y42298D03*
X196946Y42298D03*
D40*
X119355Y42413D03*
X131760Y42413D03*
D78*
X147037Y42413D03*
D41*
X155939Y42413D03*
D42*
X166449Y42413D03*
D79*
X188159Y42413D03*
D32*
X116196Y42413D03*
X122514Y42413D03*
D35*
X128601Y42413D03*
D32*
X163291Y42413D03*
X169608Y42413D03*
X197061Y42413D03*
D53*
X119355Y42528D03*
X131760Y42528D03*
D80*
X146980Y42528D03*
D55*
X155939Y42528D03*
D56*
X166449Y42528D03*
D81*
X188216Y42528D03*
D58*
X116196Y42528D03*
X122514Y42528D03*
D59*
X128601Y42528D03*
D58*
X152723Y42528D03*
X163291Y42528D03*
X169608Y42528D03*
X197176Y42528D03*
D40*
X119355Y42643D03*
X131760Y42643D03*
D82*
X150139Y42643D03*
D42*
X166449Y42643D03*
D83*
X188331Y42643D03*
D32*
X116196Y42643D03*
X122514Y42643D03*
D35*
X128601Y42643D03*
D32*
X163291Y42643D03*
X169608Y42643D03*
D40*
X119355Y42757D03*
X131760Y42757D03*
D83*
X150081Y42757D03*
D42*
X166449Y42757D03*
D84*
X188388Y42757D03*
D32*
X116196Y42757D03*
X122514Y42757D03*
D35*
X128601Y42757D03*
D32*
X163291Y42757D03*
X169608Y42757D03*
D53*
X119355Y42872D03*
X131760Y42872D03*
D85*
X150024Y42872D03*
D56*
X166449Y42872D03*
D86*
X188446Y42872D03*
D58*
X116196Y42872D03*
X122514Y42872D03*
D59*
X128601Y42872D03*
D58*
X163291Y42872D03*
X169608Y42872D03*
D40*
X119355Y42987D03*
X131760Y42987D03*
D87*
X149966Y42987D03*
D42*
X166449Y42987D03*
D88*
X188446Y42987D03*
D32*
X116196Y42987D03*
X122514Y42987D03*
D35*
X128601Y42987D03*
D32*
X163291Y42987D03*
X169608Y42987D03*
X197635Y42987D03*
D45*
X119355Y43102D03*
X131760Y43102D03*
D89*
X149909Y43102D03*
D48*
X166449Y43102D03*
D90*
X188503Y43102D03*
D38*
X116196Y43102D03*
X122514Y43102D03*
D50*
X128601Y43102D03*
D38*
X163291Y43102D03*
X169608Y43102D03*
X197750Y43102D03*
D40*
X119355Y43217D03*
X131760Y43217D03*
D91*
X149851Y43217D03*
D42*
X166449Y43217D03*
D92*
X188561Y43217D03*
D32*
X116196Y43217D03*
X122514Y43217D03*
D35*
X128601Y43217D03*
D32*
X163291Y43217D03*
X169608Y43217D03*
X197865Y43217D03*
D40*
X119355Y43332D03*
X131760Y43332D03*
D93*
X149794Y43332D03*
D42*
X166449Y43332D03*
D93*
X188618Y43332D03*
D32*
X116196Y43332D03*
X122514Y43332D03*
D35*
X128601Y43332D03*
D32*
X163291Y43332D03*
X169608Y43332D03*
D45*
X119355Y43447D03*
X131760Y43447D03*
D94*
X149794Y43447D03*
D48*
X166449Y43447D03*
D95*
X188676Y43447D03*
D38*
X116196Y43447D03*
X122514Y43447D03*
D50*
X128601Y43447D03*
D38*
X140433Y43447D03*
X163291Y43447D03*
X169608Y43447D03*
D40*
X119355Y43561D03*
X131760Y43561D03*
D96*
X149737Y43561D03*
D42*
X166449Y43561D03*
D97*
X188733Y43561D03*
D32*
X116196Y43561D03*
X122514Y43561D03*
D35*
X128601Y43561D03*
D32*
X140318Y43561D03*
X163291Y43561D03*
X169608Y43561D03*
D40*
X119355Y43676D03*
X131760Y43676D03*
D97*
X149679Y43676D03*
D42*
X166449Y43676D03*
D98*
X188791Y43676D03*
D32*
X116196Y43676D03*
X122514Y43676D03*
D35*
X128601Y43676D03*
D32*
X140203Y43676D03*
X163291Y43676D03*
X169608Y43676D03*
D53*
X119355Y43791D03*
X131760Y43791D03*
D99*
X149622Y43791D03*
D56*
X166449Y43791D03*
D99*
X188791Y43791D03*
D58*
X116196Y43791D03*
X122514Y43791D03*
D59*
X128601Y43791D03*
D58*
X163291Y43791D03*
X169608Y43791D03*
D59*
X198324Y43791D03*
D40*
X119355Y43906D03*
X131760Y43906D03*
D100*
X149564Y43906D03*
D42*
X166449Y43906D03*
D101*
X188848Y43906D03*
D32*
X116196Y43906D03*
X122514Y43906D03*
D35*
X128601Y43906D03*
D32*
X163291Y43906D03*
X169608Y43906D03*
D40*
X119355Y44021D03*
X131760Y44021D03*
D100*
X149564Y44021D03*
D42*
X166449Y44021D03*
D102*
X188905Y44021D03*
D32*
X116196Y44021D03*
X122514Y44021D03*
D35*
X128601Y44021D03*
D32*
X139973Y44021D03*
X163291Y44021D03*
X169608Y44021D03*
D53*
X119355Y44136D03*
X131760Y44136D03*
D103*
X149507Y44136D03*
D56*
X166449Y44136D03*
D104*
X188905Y44136D03*
D58*
X116196Y44136D03*
X122514Y44136D03*
D59*
X128601Y44136D03*
D58*
X163291Y44136D03*
X169608Y44136D03*
X198554Y44136D03*
D40*
X119355Y44251D03*
X131760Y44251D03*
D105*
X149449Y44251D03*
D42*
X166449Y44251D03*
D106*
X188963Y44251D03*
D32*
X116196Y44251D03*
X122514Y44251D03*
D35*
X128601Y44251D03*
D32*
X163291Y44251D03*
X169608Y44251D03*
D40*
X119355Y44366D03*
X131760Y44366D03*
D105*
X149449Y44366D03*
D42*
X166449Y44366D03*
D106*
X188963Y44366D03*
D32*
X116196Y44366D03*
X122514Y44366D03*
D35*
X128601Y44366D03*
D32*
X139743Y44366D03*
X163291Y44366D03*
X169608Y44366D03*
X198669Y44366D03*
D53*
X119355Y44480D03*
X131760Y44480D03*
D107*
X149392Y44480D03*
D56*
X166449Y44480D03*
D108*
X189020Y44480D03*
D58*
X116196Y44480D03*
X122514Y44480D03*
D59*
X128601Y44480D03*
D58*
X163291Y44480D03*
X169608Y44480D03*
X198784Y44480D03*
D40*
X119355Y44595D03*
X131760Y44595D03*
D109*
X149392Y44595D03*
D42*
X166449Y44595D03*
D110*
X189078Y44595D03*
D32*
X116196Y44595D03*
X122514Y44595D03*
D35*
X128601Y44595D03*
X139628Y44595D03*
D32*
X163291Y44595D03*
X169608Y44595D03*
D40*
X119355Y44710D03*
X131760Y44710D03*
D110*
X149335Y44710D03*
D42*
X166449Y44710D03*
D110*
X189078Y44710D03*
D32*
X116196Y44710D03*
X122514Y44710D03*
D35*
X128601Y44710D03*
D32*
X163291Y44710D03*
X169608Y44710D03*
X198899Y44710D03*
D45*
X119355Y44825D03*
X131760Y44825D03*
D111*
X149335Y44825D03*
D48*
X166449Y44825D03*
D112*
X189135Y44825D03*
D38*
X116196Y44825D03*
X122514Y44825D03*
D50*
X128601Y44825D03*
D38*
X139514Y44825D03*
X163291Y44825D03*
X169608Y44825D03*
D40*
X119355Y44940D03*
X131760Y44940D03*
D113*
X149277Y44940D03*
D42*
X166449Y44940D03*
D113*
X189135Y44940D03*
D32*
X116196Y44940D03*
X122514Y44940D03*
D35*
X128601Y44940D03*
D32*
X163291Y44940D03*
X169608Y44940D03*
X199014Y44940D03*
D40*
X119355Y45055D03*
X131760Y45055D03*
D113*
X149277Y45055D03*
D42*
X166449Y45055D03*
D114*
X189193Y45055D03*
D32*
X116196Y45055D03*
X122514Y45055D03*
D35*
X128601Y45055D03*
D32*
X139399Y45055D03*
X163291Y45055D03*
X169608Y45055D03*
D45*
X119355Y45170D03*
X131760Y45170D03*
D115*
X149220Y45170D03*
D48*
X166449Y45170D03*
D115*
X189193Y45170D03*
D38*
X116196Y45170D03*
X122514Y45170D03*
D50*
X128601Y45170D03*
D38*
X163291Y45170D03*
X169608Y45170D03*
D50*
X199128Y45170D03*
D40*
X119355Y45284D03*
X131760Y45284D03*
D114*
X149220Y45284D03*
D42*
X166449Y45284D03*
D116*
X189250Y45284D03*
D32*
X116196Y45284D03*
X122514Y45284D03*
D35*
X128601Y45284D03*
D32*
X139284Y45284D03*
X163291Y45284D03*
X169608Y45284D03*
D53*
X119355Y45399D03*
X131760Y45399D03*
D117*
X149162Y45399D03*
D56*
X166449Y45399D03*
D118*
X189250Y45399D03*
D58*
X116196Y45399D03*
X122514Y45399D03*
D59*
X128601Y45399D03*
D58*
X163291Y45399D03*
X169608Y45399D03*
X199243Y45399D03*
D40*
X119355Y45514D03*
X131760Y45514D03*
D119*
X143763Y45514D03*
D66*
X154389Y45514D03*
D42*
X166449Y45514D03*
D120*
X183966Y45514D03*
D121*
X194821Y45514D03*
D32*
X116196Y45514D03*
X122514Y45514D03*
D35*
X128601Y45514D03*
D32*
X139169Y45514D03*
D24*
X148530Y45514D03*
D122*
X149392Y45514D03*
D32*
X163291Y45514D03*
X169608Y45514D03*
D22*
X188790Y45514D03*
D31*
X190226Y45514D03*
D40*
X119355Y45629D03*
X131760Y45629D03*
D61*
X143419Y45629D03*
D63*
X154618Y45629D03*
D42*
X166449Y45629D03*
D62*
X183736Y45629D03*
D123*
X195050Y45629D03*
D32*
X116196Y45629D03*
X122514Y45629D03*
D35*
X128601Y45629D03*
D31*
X147841Y45629D03*
D32*
X150081Y45629D03*
X163291Y45629D03*
X169608Y45629D03*
D31*
X188273Y45629D03*
D32*
X190743Y45629D03*
D53*
X119355Y45744D03*
X131760Y45744D03*
D124*
X143246Y45744D03*
D125*
X154791Y45744D03*
D56*
X166449Y45744D03*
D126*
X183564Y45744D03*
D57*
X195223Y45744D03*
D58*
X116196Y45744D03*
X122514Y45744D03*
D59*
X128601Y45744D03*
D58*
X139054Y45744D03*
X147439Y45744D03*
X150426Y45744D03*
X163291Y45744D03*
X169608Y45744D03*
X187872Y45744D03*
D29*
X191030Y45744D03*
D58*
X199358Y45744D03*
D40*
X119355Y45859D03*
X131760Y45859D03*
D127*
X143132Y45859D03*
D128*
X154905Y45859D03*
D42*
X166449Y45859D03*
D129*
X183449Y45859D03*
D130*
X195395Y45859D03*
D32*
X116196Y45859D03*
X122514Y45859D03*
D35*
X128601Y45859D03*
D32*
X139054Y45859D03*
X147210Y45859D03*
D35*
X150655Y45859D03*
D32*
X163291Y45859D03*
X169608Y45859D03*
X187642Y45859D03*
X191318Y45859D03*
D40*
X119355Y45974D03*
X131760Y45974D03*
D131*
X142959Y45974D03*
D132*
X155020Y45974D03*
D42*
X166449Y45974D03*
D133*
X183392Y45974D03*
D134*
X195453Y45974D03*
D32*
X116196Y45974D03*
X122514Y45974D03*
D35*
X128601Y45974D03*
D32*
X146980Y45974D03*
X150885Y45974D03*
X163291Y45974D03*
X169608Y45974D03*
D45*
X119355Y46089D03*
X131760Y46089D03*
D135*
X142902Y46089D03*
D136*
X155135Y46089D03*
D48*
X166449Y46089D03*
D136*
X183277Y46089D03*
D137*
X195567Y46089D03*
D38*
X116196Y46089D03*
X122514Y46089D03*
D50*
X128601Y46089D03*
D38*
X138939Y46089D03*
X151115Y46089D03*
X163291Y46089D03*
X169608Y46089D03*
X191662Y46089D03*
X199473Y46089D03*
D40*
X119355Y46203D03*
X131760Y46203D03*
D51*
X142729Y46203D03*
D138*
X155193Y46203D03*
D42*
X166449Y46203D03*
D138*
X183220Y46203D03*
D51*
X195682Y46203D03*
D32*
X116196Y46203D03*
X122514Y46203D03*
D35*
X128601Y46203D03*
D32*
X146635Y46203D03*
X163291Y46203D03*
X169608Y46203D03*
D40*
X119355Y46318D03*
X131760Y46318D03*
D139*
X142672Y46318D03*
X155308Y46318D03*
D42*
X166449Y46318D03*
D139*
X183105Y46318D03*
X195740Y46318D03*
D32*
X116196Y46318D03*
X122514Y46318D03*
D35*
X128601Y46318D03*
D32*
X151460Y46318D03*
X163291Y46318D03*
X169608Y46318D03*
X186953Y46318D03*
D45*
X119355Y46433D03*
X131760Y46433D03*
D140*
X142615Y46433D03*
X155365Y46433D03*
D48*
X166449Y46433D03*
D49*
X183047Y46433D03*
D141*
X195855Y46433D03*
D38*
X116196Y46433D03*
X122514Y46433D03*
D50*
X128601Y46433D03*
X138824Y46433D03*
X151574Y46433D03*
D38*
X163291Y46433D03*
X169608Y46433D03*
X186838Y46433D03*
X192122Y46433D03*
X199588Y46433D03*
D40*
X119355Y46548D03*
X131760Y46548D03*
D142*
X142500Y46548D03*
D143*
X155422Y46548D03*
D42*
X166449Y46548D03*
D144*
X182990Y46548D03*
X195970Y46548D03*
D32*
X116196Y46548D03*
X122514Y46548D03*
D35*
X128601Y46548D03*
D32*
X151689Y46548D03*
X163291Y46548D03*
X169608Y46548D03*
X186723Y46548D03*
X192237Y46548D03*
D40*
X119355Y46663D03*
X131760Y46663D03*
D144*
X142443Y46663D03*
D145*
X155480Y46663D03*
D42*
X166449Y46663D03*
D146*
X182932Y46663D03*
D145*
X196027Y46663D03*
D32*
X116196Y46663D03*
X122514Y46663D03*
D35*
X128601Y46663D03*
D32*
X163291Y46663D03*
X169608Y46663D03*
D35*
X192351Y46663D03*
D53*
X119355Y46778D03*
X131760Y46778D03*
D147*
X142385Y46778D03*
D148*
X155537Y46778D03*
D56*
X166449Y46778D03*
D149*
X182875Y46778D03*
D150*
X196027Y46778D03*
D58*
X116196Y46778D03*
X122514Y46778D03*
D59*
X128601Y46778D03*
D58*
X151919Y46778D03*
X163291Y46778D03*
X169608Y46778D03*
X186493Y46778D03*
D40*
X119355Y46893D03*
X131760Y46893D03*
D151*
X142328Y46893D03*
D152*
X155595Y46893D03*
D42*
X166449Y46893D03*
D152*
X182818Y46893D03*
D153*
X196084Y46893D03*
D32*
X116196Y46893D03*
X122514Y46893D03*
D35*
X128601Y46893D03*
D32*
X138710Y46893D03*
X152034Y46893D03*
X163291Y46893D03*
X169608Y46893D03*
D35*
X186378Y46893D03*
D32*
X199703Y46893D03*
D40*
X119355Y47007D03*
X131760Y47007D03*
D154*
X142270Y47007D03*
D44*
X155652Y47007D03*
D42*
X166449Y47007D03*
D44*
X182760Y47007D03*
D153*
X196199Y47007D03*
D32*
X116196Y47007D03*
X122514Y47007D03*
D35*
X128601Y47007D03*
D32*
X138710Y47007D03*
X145831Y47007D03*
X152149Y47007D03*
X163291Y47007D03*
X169608Y47007D03*
X186264Y47007D03*
D53*
X119355Y47122D03*
X131760Y47122D03*
D149*
X142213Y47122D03*
D155*
X155652Y47122D03*
D56*
X166449Y47122D03*
D155*
X182760Y47122D03*
D156*
X196257Y47122D03*
D58*
X116196Y47122D03*
X122514Y47122D03*
D59*
X128601Y47122D03*
D58*
X163291Y47122D03*
X169608Y47122D03*
X192696Y47122D03*
D40*
X119355Y47237D03*
X131760Y47237D03*
D154*
X142155Y47237D03*
D43*
X155710Y47237D03*
D42*
X166449Y47237D03*
D43*
X182703Y47237D03*
D152*
X196257Y47237D03*
D32*
X116196Y47237D03*
X122514Y47237D03*
D35*
X128601Y47237D03*
D32*
X163291Y47237D03*
X169608Y47237D03*
X199818Y47237D03*
D45*
X119355Y47352D03*
X131760Y47352D03*
D157*
X142098Y47352D03*
D158*
X155767Y47352D03*
D48*
X166449Y47352D03*
D159*
X182645Y47352D03*
D157*
X196314Y47352D03*
D38*
X116196Y47352D03*
X122514Y47352D03*
D50*
X128601Y47352D03*
D38*
X138595Y47352D03*
D50*
X152378Y47352D03*
D38*
X163291Y47352D03*
X169608Y47352D03*
X186034Y47352D03*
X199818Y47352D03*
D40*
X119355Y47467D03*
X131760Y47467D03*
D43*
X142041Y47467D03*
D160*
X155767Y47467D03*
D42*
X166449Y47467D03*
D161*
X182645Y47467D03*
D43*
X196372Y47467D03*
D32*
X116196Y47467D03*
X122514Y47467D03*
D35*
X128601Y47467D03*
D32*
X138595Y47467D03*
X145487Y47467D03*
X163291Y47467D03*
X169608Y47467D03*
X192926Y47467D03*
X199818Y47467D03*
D40*
X119355Y47582D03*
X131760Y47582D03*
D43*
X142041Y47582D03*
D162*
X155824Y47582D03*
D42*
X166449Y47582D03*
D163*
X182588Y47582D03*
D44*
X196429Y47582D03*
D32*
X116196Y47582D03*
X122514Y47582D03*
D35*
X128601Y47582D03*
D32*
X138595Y47582D03*
X152493Y47582D03*
X163291Y47582D03*
X169608Y47582D03*
X185919Y47582D03*
D45*
X119355Y47697D03*
X131760Y47697D03*
D164*
X141926Y47697D03*
D165*
X155824Y47697D03*
D48*
X166449Y47697D03*
D166*
X182588Y47697D03*
D164*
X196487Y47697D03*
D38*
X116196Y47697D03*
X122514Y47697D03*
D50*
X128601Y47697D03*
D38*
X145372Y47697D03*
X163291Y47697D03*
X169608Y47697D03*
X193041Y47697D03*
D40*
X119355Y47811D03*
X131760Y47811D03*
D43*
X141926Y47811D03*
D167*
X155882Y47811D03*
D42*
X166449Y47811D03*
D168*
X182530Y47811D03*
D43*
X196487Y47811D03*
D32*
X116196Y47811D03*
X122514Y47811D03*
D35*
X128601Y47811D03*
D32*
X152608Y47811D03*
X163291Y47811D03*
X169608Y47811D03*
X185804Y47811D03*
D40*
X119355Y47926D03*
X131760Y47926D03*
D161*
X141868Y47926D03*
D167*
X155882Y47926D03*
D42*
X166449Y47926D03*
D168*
X182530Y47926D03*
D160*
X196544Y47926D03*
D32*
X116196Y47926D03*
X122514Y47926D03*
D35*
X128601Y47926D03*
D32*
X145257Y47926D03*
X163291Y47926D03*
X169608Y47926D03*
D35*
X193155Y47926D03*
D53*
X119355Y48041D03*
X131760Y48041D03*
D169*
X141868Y48041D03*
D55*
X155939Y48041D03*
D56*
X166449Y48041D03*
D18*
X182473Y48041D03*
D170*
X196544Y48041D03*
D58*
X116196Y48041D03*
X122514Y48041D03*
D59*
X128601Y48041D03*
D58*
X152723Y48041D03*
X163291Y48041D03*
X169608Y48041D03*
X185689Y48041D03*
X199933Y48041D03*
D40*
X119355Y48156D03*
X131760Y48156D03*
D161*
X141868Y48156D03*
D41*
X155939Y48156D03*
D42*
X166449Y48156D03*
D11*
X182473Y48156D03*
D162*
X196601Y48156D03*
D32*
X116196Y48156D03*
X122514Y48156D03*
D35*
X128601Y48156D03*
D32*
X138480Y48156D03*
X163291Y48156D03*
X169608Y48156D03*
X193270Y48156D03*
X199933Y48156D03*
D40*
X119355Y48271D03*
X131760Y48271D03*
D163*
X141811Y48271D03*
D41*
X155939Y48271D03*
D42*
X166449Y48271D03*
D11*
X182473Y48271D03*
D162*
X196601Y48271D03*
D32*
X116196Y48271D03*
X122514Y48271D03*
D35*
X128601Y48271D03*
D32*
X138480Y48271D03*
X145142Y48271D03*
X163291Y48271D03*
X169608Y48271D03*
X193270Y48271D03*
X199933Y48271D03*
D53*
X119355Y48386D03*
X131760Y48386D03*
D171*
X141811Y48386D03*
D53*
X155997Y48386D03*
D56*
X166449Y48386D03*
D53*
X182416Y48386D03*
D172*
X196601Y48386D03*
D58*
X116196Y48386D03*
X122514Y48386D03*
D59*
X128601Y48386D03*
D58*
X138480Y48386D03*
X152838Y48386D03*
X163291Y48386D03*
X169608Y48386D03*
D59*
X185574Y48386D03*
D58*
X199933Y48386D03*
D40*
X119355Y48501D03*
X131760Y48501D03*
D163*
X141811Y48501D03*
D40*
X155997Y48501D03*
D42*
X166449Y48501D03*
D40*
X182416Y48501D03*
D160*
X196659Y48501D03*
D32*
X116196Y48501D03*
X122514Y48501D03*
D35*
X128601Y48501D03*
D32*
X138480Y48501D03*
X163291Y48501D03*
X169608Y48501D03*
D35*
X185574Y48501D03*
D40*
X119355Y48616D03*
X131760Y48616D03*
D163*
X141696Y48616D03*
D40*
X155997Y48616D03*
D42*
X166449Y48616D03*
D40*
X182416Y48616D03*
D162*
X196716Y48616D03*
D32*
X116196Y48616D03*
X122514Y48616D03*
D35*
X128601Y48616D03*
D32*
X145027Y48616D03*
X163291Y48616D03*
X169608Y48616D03*
X193385Y48616D03*
D53*
X119355Y48730D03*
X131760Y48730D03*
D171*
X141696Y48730D03*
D53*
X155997Y48730D03*
D56*
X166449Y48730D03*
D53*
X182416Y48730D03*
D172*
X196716Y48730D03*
D58*
X116196Y48730D03*
X122514Y48730D03*
D59*
X128601Y48730D03*
D58*
X145027Y48730D03*
X163291Y48730D03*
X169608Y48730D03*
X193385Y48730D03*
D40*
X119355Y48845D03*
X131760Y48845D03*
D163*
X141696Y48845D03*
D40*
X155997Y48845D03*
D42*
X166449Y48845D03*
D40*
X182416Y48845D03*
D162*
X196716Y48845D03*
D32*
X116196Y48845D03*
X122514Y48845D03*
D35*
X128601Y48845D03*
D32*
X163291Y48845D03*
X169608Y48845D03*
D40*
X119355Y48960D03*
X131760Y48960D03*
D163*
X141696Y48960D03*
D173*
X156054Y48960D03*
D42*
X166449Y48960D03*
D173*
X182358Y48960D03*
D162*
X196716Y48960D03*
D32*
X116196Y48960D03*
X122514Y48960D03*
D35*
X128601Y48960D03*
D32*
X152953Y48960D03*
X163291Y48960D03*
X169608Y48960D03*
X185460Y48960D03*
D45*
X119355Y49075D03*
X131760Y49075D03*
D166*
X141696Y49075D03*
D174*
X156054Y49075D03*
D48*
X166449Y49075D03*
D174*
X182358Y49075D03*
D165*
X196716Y49075D03*
D38*
X116196Y49075D03*
X122514Y49075D03*
D50*
X128601Y49075D03*
D38*
X152953Y49075D03*
X163291Y49075D03*
X169608Y49075D03*
X185460Y49075D03*
D40*
X119355Y49190D03*
X131760Y49190D03*
D163*
X141696Y49190D03*
D173*
X156054Y49190D03*
D11*
X166507Y49190D03*
D173*
X182358Y49190D03*
D162*
X196716Y49190D03*
D32*
X116196Y49190D03*
X122514Y49190D03*
D35*
X128601Y49190D03*
D32*
X152953Y49190D03*
X163291Y49190D03*
X185460Y49190D03*
D40*
X119355Y49305D03*
X131760Y49305D03*
D163*
X141696Y49305D03*
D173*
X156054Y49305D03*
D11*
X166507Y49305D03*
D173*
X182358Y49305D03*
D162*
X196716Y49305D03*
D32*
X116196Y49305D03*
X122514Y49305D03*
D35*
X128601Y49305D03*
D32*
X152953Y49305D03*
X163291Y49305D03*
X185460Y49305D03*
D45*
X119355Y49420D03*
X131760Y49420D03*
D166*
X141696Y49420D03*
D174*
X156054Y49420D03*
D14*
X166507Y49420D03*
D174*
X182358Y49420D03*
D165*
X196716Y49420D03*
D38*
X116196Y49420D03*
X122514Y49420D03*
D50*
X128601Y49420D03*
D38*
X152953Y49420D03*
X163291Y49420D03*
X185460Y49420D03*
D40*
X119355Y49534D03*
X131760Y49534D03*
D163*
X141696Y49534D03*
D173*
X156054Y49534D03*
D11*
X166507Y49534D03*
D173*
X182358Y49534D03*
D162*
X196716Y49534D03*
D32*
X116196Y49534D03*
X122514Y49534D03*
D35*
X128601Y49534D03*
D32*
X152953Y49534D03*
X163291Y49534D03*
X185460Y49534D03*
D53*
X119355Y49649D03*
X131760Y49649D03*
D171*
X141696Y49649D03*
D175*
X156054Y49649D03*
D18*
X166507Y49649D03*
D175*
X182358Y49649D03*
D172*
X196716Y49649D03*
D58*
X116196Y49649D03*
X122514Y49649D03*
D59*
X128601Y49649D03*
D58*
X152953Y49649D03*
X163291Y49649D03*
X185460Y49649D03*
D40*
X119355Y49764D03*
X131760Y49764D03*
D163*
X141696Y49764D03*
D173*
X156054Y49764D03*
D11*
X166507Y49764D03*
D173*
X182358Y49764D03*
D162*
X196716Y49764D03*
D32*
X116196Y49764D03*
X122514Y49764D03*
D35*
X128601Y49764D03*
D32*
X152953Y49764D03*
X163291Y49764D03*
X169723Y49764D03*
X185460Y49764D03*
D40*
X119355Y49879D03*
X131760Y49879D03*
D163*
X141696Y49879D03*
D173*
X156054Y49879D03*
D11*
X166507Y49879D03*
D173*
X182358Y49879D03*
D162*
X196716Y49879D03*
D32*
X116196Y49879D03*
X122514Y49879D03*
D35*
X128601Y49879D03*
D32*
X152953Y49879D03*
X163291Y49879D03*
X169723Y49879D03*
X185460Y49879D03*
D53*
X119355Y49994D03*
X131760Y49994D03*
D171*
X141696Y49994D03*
D175*
X156054Y49994D03*
D176*
X166564Y49994D03*
D175*
X182358Y49994D03*
D172*
X196716Y49994D03*
D58*
X116196Y49994D03*
X122514Y49994D03*
D59*
X128601Y49994D03*
D58*
X152953Y49994D03*
X163291Y49994D03*
X185460Y49994D03*
D40*
X119355Y50109D03*
X131760Y50109D03*
D163*
X141696Y50109D03*
D40*
X155997Y50109D03*
D168*
X166564Y50109D03*
D40*
X182416Y50109D03*
D162*
X196716Y50109D03*
D32*
X116196Y50109D03*
X122514Y50109D03*
D35*
X128601Y50109D03*
D32*
X163291Y50109D03*
D40*
X119355Y50224D03*
X131760Y50224D03*
D163*
X141696Y50224D03*
D40*
X155997Y50224D03*
D168*
X166564Y50224D03*
D40*
X182416Y50224D03*
D162*
X196716Y50224D03*
D32*
X116196Y50224D03*
X122514Y50224D03*
D35*
X128601Y50224D03*
D32*
X145027Y50224D03*
X163291Y50224D03*
X193385Y50224D03*
D45*
X119355Y50339D03*
X131760Y50339D03*
D166*
X141696Y50339D03*
D45*
X155997Y50339D03*
D177*
X166564Y50339D03*
D45*
X182416Y50339D03*
D165*
X196716Y50339D03*
D38*
X116196Y50339D03*
X122514Y50339D03*
D50*
X128601Y50339D03*
D38*
X145027Y50339D03*
X163291Y50339D03*
X169838Y50339D03*
X193385Y50339D03*
D40*
X119355Y50453D03*
X131760Y50453D03*
D161*
X141753Y50453D03*
D40*
X155997Y50453D03*
D163*
X166622Y50453D03*
D40*
X182416Y50453D03*
D162*
X196601Y50453D03*
D32*
X116196Y50453D03*
X122514Y50453D03*
D35*
X128601Y50453D03*
D32*
X152838Y50453D03*
X163291Y50453D03*
D35*
X185574Y50453D03*
D32*
X199933Y50453D03*
D40*
X119355Y50568D03*
D11*
X131703Y50568D03*
D163*
X141811Y50568D03*
D40*
X155997Y50568D03*
D163*
X166622Y50568D03*
D40*
X182416Y50568D03*
D162*
X196601Y50568D03*
D32*
X116196Y50568D03*
X122514Y50568D03*
X138480Y50568D03*
X152838Y50568D03*
X163291Y50568D03*
D35*
X185574Y50568D03*
D32*
X199933Y50568D03*
D45*
X119355Y50683D03*
D14*
X131703Y50683D03*
D166*
X141811Y50683D03*
D47*
X155939Y50683D03*
D166*
X166622Y50683D03*
D14*
X182473Y50683D03*
D165*
X196601Y50683D03*
D38*
X116196Y50683D03*
X122514Y50683D03*
X138480Y50683D03*
X145142Y50683D03*
X163291Y50683D03*
X169953Y50683D03*
X193270Y50683D03*
X199933Y50683D03*
D40*
X119355Y50798D03*
D11*
X131703Y50798D03*
D161*
X141868Y50798D03*
D41*
X155939Y50798D03*
D161*
X166679Y50798D03*
D11*
X182473Y50798D03*
D162*
X196601Y50798D03*
D32*
X116196Y50798D03*
X122514Y50798D03*
X138480Y50798D03*
X163291Y50798D03*
X193270Y50798D03*
X199933Y50798D03*
D41*
X119412Y50913D03*
D11*
X131703Y50913D03*
D161*
X141868Y50913D03*
D41*
X155939Y50913D03*
D161*
X166679Y50913D03*
D11*
X182473Y50913D03*
D160*
X196544Y50913D03*
D32*
X116196Y50913D03*
X152723Y50913D03*
X163291Y50913D03*
X185689Y50913D03*
D55*
X119412Y51028D03*
D18*
X131703Y51028D03*
D169*
X141868Y51028D03*
D178*
X155882Y51028D03*
D179*
X166737Y51028D03*
D176*
X182530Y51028D03*
D170*
X196544Y51028D03*
D58*
X116196Y51028D03*
X145257Y51028D03*
X163291Y51028D03*
D59*
X193155Y51028D03*
D41*
X119412Y51143D03*
D11*
X131703Y51143D03*
D43*
X141926Y51143D03*
D167*
X155882Y51143D03*
D43*
X166737Y51143D03*
D168*
X182530Y51143D03*
D43*
X196487Y51143D03*
D32*
X116196Y51143D03*
X152608Y51143D03*
X163291Y51143D03*
X185804Y51143D03*
D41*
X119412Y51257D03*
D11*
X131703Y51257D03*
D43*
X141926Y51257D03*
D162*
X155824Y51257D03*
D43*
X166737Y51257D03*
D163*
X182588Y51257D03*
D43*
X196487Y51257D03*
D32*
X116196Y51257D03*
D35*
X122628Y51257D03*
D32*
X128487Y51257D03*
X145372Y51257D03*
X163291Y51257D03*
X170183Y51257D03*
X193041Y51257D03*
D55*
X119412Y51372D03*
D18*
X131703Y51372D03*
D155*
X141983Y51372D03*
D172*
X155824Y51372D03*
D155*
X166794Y51372D03*
D171*
X182588Y51372D03*
D179*
X196372Y51372D03*
D58*
X116196Y51372D03*
D59*
X122628Y51372D03*
D58*
X128487Y51372D03*
X152493Y51372D03*
X163291Y51372D03*
X185919Y51372D03*
X199818Y51372D03*
D168*
X119469Y51487D03*
D11*
X131703Y51487D03*
D43*
X142041Y51487D03*
D160*
X155767Y51487D03*
D154*
X166851Y51487D03*
D161*
X182645Y51487D03*
D43*
X196372Y51487D03*
D32*
X116196Y51487D03*
X128487Y51487D03*
X138595Y51487D03*
X145487Y51487D03*
X163291Y51487D03*
X192926Y51487D03*
X199818Y51487D03*
D177*
X119469Y51602D03*
X131645Y51602D03*
D157*
X142098Y51602D03*
D158*
X155767Y51602D03*
D180*
X166851Y51602D03*
D159*
X182645Y51602D03*
D157*
X196314Y51602D03*
D38*
X116196Y51602D03*
X138595Y51602D03*
D50*
X152378Y51602D03*
D38*
X163291Y51602D03*
X170412Y51602D03*
X186034Y51602D03*
X199818Y51602D03*
D168*
X119469Y51717D03*
X131645Y51717D03*
D154*
X142155Y51717D03*
D43*
X155710Y51717D03*
D151*
X166909Y51717D03*
D43*
X182703Y51717D03*
D152*
X196257Y51717D03*
D32*
X116196Y51717D03*
X163291Y51717D03*
D168*
X119469Y51832D03*
X131645Y51832D03*
D151*
X142213Y51832D03*
D44*
X155652Y51832D03*
D146*
X166966Y51832D03*
D44*
X182760Y51832D03*
D152*
X196257Y51832D03*
D32*
X116196Y51832D03*
X122743Y51832D03*
X163291Y51832D03*
X192696Y51832D03*
D166*
X119527Y51947D03*
D177*
X131645Y51947D03*
D181*
X142213Y51947D03*
D182*
X155595Y51947D03*
D141*
X167024Y51947D03*
D157*
X182760Y51947D03*
D182*
X196142Y51947D03*
D38*
X116196Y51947D03*
X128372Y51947D03*
X145831Y51947D03*
X163291Y51947D03*
X186264Y51947D03*
X199703Y51947D03*
D163*
X119527Y52061D03*
X131588Y52061D03*
D151*
X142328Y52061D03*
D152*
X155595Y52061D03*
D142*
X167081Y52061D03*
D152*
X182818Y52061D03*
D153*
X196084Y52061D03*
D32*
X116196Y52061D03*
X122858Y52061D03*
X138710Y52061D03*
X152034Y52061D03*
X163291Y52061D03*
D35*
X186378Y52061D03*
D32*
X199703Y52061D03*
D161*
X119584Y52176D03*
D163*
X131588Y52176D03*
D146*
X142385Y52176D03*
D153*
X155537Y52176D03*
D139*
X167139Y52176D03*
D151*
X182875Y52176D03*
D145*
X196027Y52176D03*
D32*
X116196Y52176D03*
X151919Y52176D03*
X163291Y52176D03*
X186493Y52176D03*
D169*
X119584Y52291D03*
D171*
X131588Y52291D03*
D183*
X142443Y52291D03*
D150*
X155480Y52291D03*
D184*
X167196Y52291D03*
D147*
X182932Y52291D03*
D150*
X196027Y52291D03*
D58*
X116196Y52291D03*
X122973Y52291D03*
X128257Y52291D03*
X151804Y52291D03*
X163291Y52291D03*
D59*
X192351Y52291D03*
D43*
X119642Y52406D03*
D161*
X131530Y52406D03*
D142*
X142500Y52406D03*
D143*
X155422Y52406D03*
D52*
X167253Y52406D03*
D144*
X182990Y52406D03*
D146*
X195912Y52406D03*
D32*
X116196Y52406D03*
X151689Y52406D03*
X163291Y52406D03*
X171216Y52406D03*
X186723Y52406D03*
X192237Y52406D03*
X199588Y52406D03*
D43*
X119642Y52521D03*
D161*
X131530Y52521D03*
D185*
X142615Y52521D03*
X155365Y52521D03*
D134*
X167311Y52521D03*
D142*
X183047Y52521D03*
X195797Y52521D03*
D32*
X116196Y52521D03*
X123088Y52521D03*
D35*
X138824Y52521D03*
X151574Y52521D03*
D32*
X163291Y52521D03*
X171331Y52521D03*
X186838Y52521D03*
X199588Y52521D03*
D155*
X119699Y52636D03*
D179*
X131473Y52636D03*
D186*
X142672Y52636D03*
D184*
X155250Y52636D03*
D57*
X167426Y52636D03*
D58*
X176500Y52636D03*
D186*
X183105Y52636D03*
X195740Y52636D03*
D58*
X116196Y52636D03*
X123203Y52636D03*
X163291Y52636D03*
X171561Y52636D03*
X176385Y52636D03*
X176615Y52636D03*
X186953Y52636D03*
D152*
X119757Y52751D03*
D43*
X131473Y52751D03*
D51*
X142729Y52751D03*
D138*
X155193Y52751D03*
D60*
X167541Y52751D03*
D25*
X176385Y52751D03*
D138*
X183220Y52751D03*
D51*
X195682Y52751D03*
D32*
X116196Y52751D03*
X128027Y52751D03*
X146635Y52751D03*
X163291Y52751D03*
X171791Y52751D03*
D35*
X176155Y52751D03*
D32*
X176615Y52751D03*
X191777Y52751D03*
D153*
X119814Y52866D03*
D44*
X131415Y52866D03*
D138*
X142902Y52866D03*
D131*
X155135Y52866D03*
D187*
X167655Y52866D03*
D188*
X176213Y52866D03*
D131*
X183277Y52866D03*
D51*
X195567Y52866D03*
D32*
X116196Y52866D03*
X127912Y52866D03*
X138939Y52866D03*
X151115Y52866D03*
X163291Y52866D03*
X172020Y52866D03*
X175811Y52866D03*
X176615Y52866D03*
D35*
X187297Y52866D03*
D32*
X191662Y52866D03*
X199473Y52866D03*
D150*
X119872Y52980D03*
D155*
X131300Y52980D03*
D189*
X142959Y52980D03*
D54*
X155020Y52980D03*
D190*
X167828Y52980D03*
D191*
X176040Y52980D03*
D57*
X183392Y52980D03*
D192*
X195453Y52980D03*
D58*
X116196Y52980D03*
D59*
X127797Y52980D03*
D58*
X134804Y52980D03*
X146980Y52980D03*
X150885Y52980D03*
X163291Y52980D03*
X172365Y52980D03*
X175466Y52980D03*
X176615Y52980D03*
X187527Y52980D03*
X191433Y52980D03*
D144*
X119929Y53095D03*
D154*
X131243Y53095D03*
D132*
X143074Y53095D03*
D128*
X154905Y53095D03*
D66*
X168058Y53095D03*
D21*
X175811Y53095D03*
D60*
X183507Y53095D03*
D130*
X195280Y53095D03*
D32*
X116196Y53095D03*
X123662Y53095D03*
X134804Y53095D03*
X147210Y53095D03*
D35*
X150655Y53095D03*
D32*
X163291Y53095D03*
D33*
X172882Y53095D03*
D31*
X174949Y53095D03*
D32*
X176615Y53095D03*
X191203Y53095D03*
X199358Y53095D03*
D142*
X119986Y53210D03*
D151*
X131186Y53210D03*
D129*
X143246Y53210D03*
D61*
X154791Y53210D03*
D193*
X168574Y53210D03*
D194*
X175294Y53210D03*
D61*
X183622Y53210D03*
D129*
X195165Y53210D03*
D32*
X116196Y53210D03*
X123777Y53210D03*
X127568Y53210D03*
X134804Y53210D03*
X139054Y53210D03*
X147439Y53210D03*
X150426Y53210D03*
X163291Y53210D03*
D31*
X173915Y53210D03*
D32*
X176615Y53210D03*
X187987Y53210D03*
X190973Y53210D03*
D137*
X120101Y53325D03*
D46*
X131128Y53325D03*
D195*
X143419Y53325D03*
D196*
X154618Y53325D03*
D197*
X169953Y53325D03*
D198*
X183794Y53325D03*
D195*
X194993Y53325D03*
D38*
X116196Y53325D03*
X127453Y53325D03*
D199*
X147841Y53325D03*
X150023Y53325D03*
D38*
X163291Y53325D03*
X176615Y53325D03*
X188331Y53325D03*
D50*
X190628Y53325D03*
D138*
X120159Y53440D03*
D142*
X131013Y53440D03*
D119*
X143763Y53440D03*
D66*
X154389Y53440D03*
D200*
X169953Y53440D03*
D120*
X183966Y53440D03*
D121*
X194706Y53440D03*
D32*
X116196Y53440D03*
X124122Y53440D03*
X127223Y53440D03*
X139169Y53440D03*
D24*
X148530Y53440D03*
D122*
X149392Y53440D03*
D32*
X163291Y53440D03*
X176615Y53440D03*
D23*
X188905Y53440D03*
D31*
X190111Y53440D03*
D32*
X199243Y53440D03*
D127*
X120274Y53555D03*
D51*
X130898Y53555D03*
D201*
X149162Y53555D03*
D200*
X169953Y53555D03*
D116*
X189250Y53555D03*
D32*
X116196Y53555D03*
D35*
X124351Y53555D03*
D32*
X126993Y53555D03*
X163291Y53555D03*
X176615Y53555D03*
D202*
X120446Y53670D03*
D203*
X130784Y53670D03*
D204*
X149162Y53670D03*
D197*
X169953Y53670D03*
D115*
X189193Y53670D03*
D38*
X116196Y53670D03*
D199*
X124753Y53670D03*
X126706Y53670D03*
D38*
X163291Y53670D03*
X176615Y53670D03*
D50*
X199128Y53670D03*
D205*
X120676Y53784D03*
D129*
X130496Y53784D03*
D114*
X149220Y53784D03*
D200*
X169953Y53784D03*
D114*
X189193Y53784D03*
D32*
X116196Y53784D03*
D206*
X125328Y53784D03*
X126132Y53784D03*
D32*
X134689Y53784D03*
X139284Y53784D03*
X163291Y53784D03*
X176615Y53784D03*
D207*
X125442Y53899D03*
D208*
X149220Y53899D03*
D209*
X169953Y53899D03*
D210*
X189135Y53899D03*
D58*
X116196Y53899D03*
X134689Y53899D03*
X163291Y53899D03*
X176615Y53899D03*
X199014Y53899D03*
D211*
X125442Y54014D03*
D113*
X149277Y54014D03*
D200*
X169953Y54014D03*
D113*
X189135Y54014D03*
D32*
X116196Y54014D03*
X139399Y54014D03*
X163291Y54014D03*
X176615Y54014D03*
D211*
X125442Y54129D03*
D113*
X149277Y54129D03*
D200*
X169953Y54129D03*
D110*
X189078Y54129D03*
D32*
X116196Y54129D03*
X163291Y54129D03*
X176615Y54129D03*
X198899Y54129D03*
D207*
X125442Y54244D03*
D212*
X149335Y54244D03*
D209*
X169953Y54244D03*
D212*
X189078Y54244D03*
D58*
X116196Y54244D03*
X139514Y54244D03*
X163291Y54244D03*
X176615Y54244D03*
D87*
X125385Y54359D03*
D110*
X149335Y54359D03*
D200*
X169953Y54359D03*
D213*
X189020Y54359D03*
D32*
X116196Y54359D03*
D35*
X134574Y54359D03*
D32*
X163291Y54359D03*
X176615Y54359D03*
X198784Y54359D03*
D87*
X125385Y54474D03*
D109*
X149392Y54474D03*
D200*
X169953Y54474D03*
D213*
X189020Y54474D03*
D32*
X116196Y54474D03*
X163291Y54474D03*
X176615Y54474D03*
D214*
X125385Y54589D03*
D215*
X149449Y54589D03*
D197*
X169953Y54589D03*
D216*
X188963Y54589D03*
D38*
X116196Y54589D03*
X139743Y54589D03*
X163291Y54589D03*
X176615Y54589D03*
D217*
X125328Y54703D03*
D105*
X149449Y54703D03*
D200*
X169953Y54703D03*
D102*
X188905Y54703D03*
D32*
X116196Y54703D03*
X134460Y54703D03*
X163291Y54703D03*
X176615Y54703D03*
X198554Y54703D03*
D217*
X125328Y54818D03*
D218*
X149507Y54818D03*
D200*
X169953Y54818D03*
D102*
X188905Y54818D03*
D32*
X116196Y54818D03*
X163291Y54818D03*
X176615Y54818D03*
D219*
X125328Y54933D03*
D220*
X149564Y54933D03*
D197*
X169953Y54933D03*
D221*
X188848Y54933D03*
D38*
X116196Y54933D03*
X139973Y54933D03*
X163291Y54933D03*
X176615Y54933D03*
X198439Y54933D03*
D83*
X125270Y55048D03*
D100*
X149564Y55048D03*
D200*
X169953Y55048D03*
D98*
X188791Y55048D03*
D32*
X116196Y55048D03*
X134345Y55048D03*
X163291Y55048D03*
X176615Y55048D03*
D35*
X198324Y55048D03*
D83*
X125270Y55163D03*
D98*
X149622Y55163D03*
D200*
X169953Y55163D03*
D98*
X188791Y55163D03*
D32*
X116196Y55163D03*
X163291Y55163D03*
X176615Y55163D03*
D222*
X125213Y55278D03*
D223*
X149679Y55278D03*
D209*
X169953Y55278D03*
D223*
X188733Y55278D03*
D58*
X116196Y55278D03*
X134230Y55278D03*
X140203Y55278D03*
X163291Y55278D03*
X176615Y55278D03*
D82*
X125213Y55393D03*
D97*
X149679Y55393D03*
D200*
X169953Y55393D03*
D96*
X188676Y55393D03*
D32*
X116196Y55393D03*
X163291Y55393D03*
X176615Y55393D03*
X198095Y55393D03*
D224*
X125155Y55507D03*
D96*
X149737Y55507D03*
D42*
X166449Y55507D03*
D44*
X173111Y55507D03*
D93*
X188618Y55507D03*
D32*
X116196Y55507D03*
X134115Y55507D03*
X163291Y55507D03*
X169608Y55507D03*
X176615Y55507D03*
X197980Y55507D03*
D81*
X125155Y55622D03*
D225*
X149794Y55622D03*
D56*
X166449Y55622D03*
D179*
X173169Y55622D03*
D225*
X188618Y55622D03*
D58*
X116196Y55622D03*
X163291Y55622D03*
D29*
X169665Y55622D03*
D58*
X176615Y55622D03*
D79*
X125098Y55737D03*
D91*
X149851Y55737D03*
D42*
X166449Y55737D03*
D43*
X173169Y55737D03*
D92*
X188561Y55737D03*
D32*
X116196Y55737D03*
X134000Y55737D03*
X163291Y55737D03*
X169608Y55737D03*
X176615Y55737D03*
D226*
X125098Y55852D03*
D89*
X149909Y55852D03*
D48*
X166449Y55852D03*
D159*
X173226Y55852D03*
D90*
X188503Y55852D03*
D38*
X116196Y55852D03*
X140662Y55852D03*
X163291Y55852D03*
X169608Y55852D03*
X176615Y55852D03*
D227*
X125040Y55967D03*
D87*
X149966Y55967D03*
D42*
X166449Y55967D03*
D163*
X173284Y55967D03*
D88*
X188446Y55967D03*
D32*
X116196Y55967D03*
X133885Y55967D03*
X140777Y55967D03*
X163291Y55967D03*
X169608Y55967D03*
X169953Y55967D03*
X176615Y55967D03*
D227*
X125040Y56082D03*
D217*
X150024Y56082D03*
D42*
X166449Y56082D03*
D163*
X173284Y56082D03*
D84*
X188388Y56082D03*
D32*
X116196Y56082D03*
X140892Y56082D03*
X163291Y56082D03*
X169608Y56082D03*
X176615Y56082D03*
D45*
X119355Y56197D03*
D228*
X128142Y56197D03*
D229*
X150081Y56197D03*
D48*
X166449Y56197D03*
D177*
X173341Y56197D03*
D229*
X188331Y56197D03*
D38*
X116196Y56197D03*
X122514Y56197D03*
X141007Y56197D03*
X163291Y56197D03*
X169608Y56197D03*
X176615Y56197D03*
D40*
X119355Y56311D03*
D230*
X128142Y56311D03*
D82*
X150139Y56311D03*
D42*
X166449Y56311D03*
D11*
X173399Y56311D03*
D82*
X188274Y56311D03*
D32*
X116196Y56311D03*
X122514Y56311D03*
D35*
X133655Y56311D03*
D32*
X141122Y56311D03*
X163291Y56311D03*
X169608Y56311D03*
X176615Y56311D03*
D40*
X119355Y56426D03*
D231*
X128142Y56426D03*
D224*
X150196Y56426D03*
D42*
X166449Y56426D03*
D40*
X173456Y56426D03*
D11*
X182473Y56426D03*
D232*
X191432Y56426D03*
D32*
X116196Y56426D03*
X122514Y56426D03*
X133541Y56426D03*
X141237Y56426D03*
X163291Y56426D03*
X169608Y56426D03*
X176615Y56426D03*
X185689Y56426D03*
D53*
X119355Y56541D03*
D233*
X128142Y56541D03*
D234*
X150253Y56541D03*
D56*
X166449Y56541D03*
D175*
X173513Y56541D03*
D18*
X182473Y56541D03*
D19*
X191432Y56541D03*
D58*
X116196Y56541D03*
X122514Y56541D03*
X133426Y56541D03*
D59*
X141351Y56541D03*
D58*
X163291Y56541D03*
X169608Y56541D03*
X170412Y56541D03*
X176615Y56541D03*
X185804Y56541D03*
D40*
X119355Y56656D03*
D235*
X128199Y56656D03*
D16*
X147094Y56656D03*
D41*
X155939Y56656D03*
D42*
X166449Y56656D03*
D236*
X173571Y56656D03*
D11*
X182473Y56656D03*
D77*
X191375Y56656D03*
D32*
X116196Y56656D03*
X122514Y56656D03*
X122973Y56656D03*
X141466Y56656D03*
X152723Y56656D03*
X163291Y56656D03*
X169608Y56656D03*
X170527Y56656D03*
X176615Y56656D03*
D40*
X119355Y56771D03*
D237*
X128199Y56771D03*
D238*
X147094Y56771D03*
D41*
X155939Y56771D03*
D42*
X166449Y56771D03*
D239*
X173628Y56771D03*
D11*
X182473Y56771D03*
D74*
X191317Y56771D03*
D32*
X116196Y56771D03*
X122514Y56771D03*
X123088Y56771D03*
X141581Y56771D03*
X152608Y56771D03*
X163291Y56771D03*
X169608Y56771D03*
X170642Y56771D03*
X176615Y56771D03*
X196716Y56771D03*
D53*
X119355Y56886D03*
D240*
X128199Y56886D03*
D241*
X147094Y56886D03*
D55*
X155939Y56886D03*
D56*
X166449Y56886D03*
D242*
X173686Y56886D03*
D18*
X182473Y56886D03*
D233*
X191318Y56886D03*
D58*
X116196Y56886D03*
X122514Y56886D03*
X123203Y56886D03*
X152493Y56886D03*
X163291Y56886D03*
X169608Y56886D03*
X170757Y56886D03*
X176615Y56886D03*
D59*
X196601Y56886D03*
D40*
X119355Y57001D03*
D243*
X128199Y57001D03*
D235*
X147152Y57001D03*
D41*
X155939Y57001D03*
D42*
X166449Y57001D03*
D244*
X173743Y57001D03*
D11*
X182473Y57001D03*
D72*
X191318Y57001D03*
D32*
X116196Y57001D03*
X122514Y57001D03*
X141926Y57001D03*
D35*
X152378Y57001D03*
D32*
X163291Y57001D03*
X169608Y57001D03*
X170872Y57001D03*
X176615Y57001D03*
X196487Y57001D03*
D40*
X119355Y57116D03*
D245*
X128199Y57116D03*
D237*
X147152Y57116D03*
D41*
X155939Y57116D03*
D42*
X166449Y57116D03*
D246*
X173801Y57116D03*
D11*
X182473Y57116D03*
D247*
X191318Y57116D03*
D32*
X116196Y57116D03*
X122514Y57116D03*
X142041Y57116D03*
X152264Y57116D03*
X163291Y57116D03*
X169608Y57116D03*
X170987Y57116D03*
X176615Y57116D03*
D53*
X119355Y57230D03*
D248*
X128142Y57230D03*
D249*
X147152Y57230D03*
D55*
X155939Y57230D03*
D56*
X166449Y57230D03*
D250*
X173858Y57230D03*
D18*
X182473Y57230D03*
D251*
X191260Y57230D03*
D58*
X116196Y57230D03*
X122514Y57230D03*
X132737Y57230D03*
X152149Y57230D03*
X163291Y57230D03*
X169608Y57230D03*
D59*
X171101Y57230D03*
D58*
X176615Y57230D03*
X196142Y57230D03*
D40*
X119355Y57345D03*
D205*
X128142Y57345D03*
D252*
X147209Y57345D03*
D41*
X155939Y57345D03*
D42*
X166449Y57345D03*
D253*
X173915Y57345D03*
D11*
X182473Y57345D03*
D66*
X191260Y57345D03*
D32*
X116196Y57345D03*
X122514Y57345D03*
X132622Y57345D03*
X142385Y57345D03*
X163291Y57345D03*
X169608Y57345D03*
X176615Y57345D03*
X196027Y57345D03*
D40*
X119355Y57460D03*
D123*
X128199Y57460D03*
D120*
X147209Y57460D03*
D41*
X155939Y57460D03*
D42*
X166449Y57460D03*
D34*
X174030Y57460D03*
D11*
X182473Y57460D03*
D254*
X191203Y57460D03*
D32*
X116196Y57460D03*
X122514Y57460D03*
X123892Y57460D03*
X142500Y57460D03*
X163291Y57460D03*
X169608Y57460D03*
X171446Y57460D03*
X176615Y57460D03*
D35*
X195797Y57460D03*
D45*
X119355Y57575D03*
D255*
X128142Y57575D03*
D256*
X147209Y57575D03*
D47*
X155939Y57575D03*
D48*
X166449Y57575D03*
D257*
X174088Y57575D03*
D14*
X182473Y57575D03*
D258*
X191260Y57575D03*
D38*
X116196Y57575D03*
X122514Y57575D03*
X124007Y57575D03*
X132277Y57575D03*
X142730Y57575D03*
X151689Y57575D03*
X163291Y57575D03*
X169608Y57575D03*
X171561Y57575D03*
X176615Y57575D03*
X186838Y57575D03*
X195683Y57575D03*
D40*
X119355Y57690D03*
D134*
X128142Y57690D03*
D61*
X147210Y57690D03*
D41*
X155939Y57690D03*
D42*
X166449Y57690D03*
D259*
X174203Y57690D03*
D11*
X182473Y57690D03*
D60*
X191203Y57690D03*
D32*
X116196Y57690D03*
X122514Y57690D03*
X142845Y57690D03*
X163291Y57690D03*
X169608Y57690D03*
X171791Y57690D03*
X176615Y57690D03*
X186953Y57690D03*
X195453Y57690D03*
D40*
X119355Y57805D03*
D185*
X128142Y57805D03*
D132*
X147209Y57805D03*
D41*
X155939Y57805D03*
D42*
X166449Y57805D03*
D260*
X174317Y57805D03*
D11*
X182473Y57805D03*
D130*
X191145Y57805D03*
D32*
X116196Y57805D03*
X122514Y57805D03*
D35*
X124351Y57805D03*
D32*
X131933Y57805D03*
D35*
X143074Y57805D03*
D32*
X151345Y57805D03*
X163291Y57805D03*
X169608Y57805D03*
X172020Y57805D03*
X176615Y57805D03*
X195223Y57805D03*
D45*
X119355Y57920D03*
D182*
X128142Y57920D03*
D135*
X147267Y57920D03*
D47*
X155939Y57920D03*
D48*
X166449Y57920D03*
D261*
X174432Y57920D03*
D14*
X182473Y57920D03*
D137*
X191202Y57920D03*
D38*
X116196Y57920D03*
X122514Y57920D03*
X124581Y57920D03*
X131703Y57920D03*
X143304Y57920D03*
X163291Y57920D03*
X169608Y57920D03*
X172250Y57920D03*
X176615Y57920D03*
D50*
X187297Y57920D03*
D40*
X119355Y58034D03*
D163*
X128142Y58034D03*
D144*
X147267Y58034D03*
D41*
X155939Y58034D03*
D42*
X166449Y58034D03*
D262*
X174547Y58034D03*
D11*
X182473Y58034D03*
D145*
X191203Y58034D03*
D32*
X116196Y58034D03*
X122514Y58034D03*
X124811Y58034D03*
X131473Y58034D03*
X143534Y58034D03*
X151000Y58034D03*
X163291Y58034D03*
X169608Y58034D03*
X172480Y58034D03*
X176615Y58034D03*
X187527Y58034D03*
D53*
X119355Y58149D03*
D263*
X128142Y58149D03*
D264*
X147267Y58149D03*
D55*
X155939Y58149D03*
D56*
X166449Y58149D03*
D265*
X174719Y58149D03*
D18*
X182473Y58149D03*
D169*
X191145Y58149D03*
D58*
X116196Y58149D03*
X122514Y58149D03*
X125041Y58149D03*
X131243Y58149D03*
X143764Y58149D03*
X150770Y58149D03*
X163291Y58149D03*
X169608Y58149D03*
D28*
X172767Y58149D03*
D58*
X176615Y58149D03*
X187757Y58149D03*
X194534Y58149D03*
D40*
X119355Y58264D03*
D266*
X128199Y58264D03*
D41*
X147209Y58264D03*
X155939Y58264D03*
D42*
X166449Y58264D03*
D267*
X174892Y58264D03*
D11*
X182473Y58264D03*
D42*
X191145Y58264D03*
D32*
X116196Y58264D03*
X122514Y58264D03*
D31*
X125327Y58264D03*
D32*
X131014Y58264D03*
X143993Y58264D03*
X150426Y58264D03*
X163291Y58264D03*
X169608Y58264D03*
X173169Y58264D03*
X176615Y58264D03*
X187987Y58264D03*
X194304Y58264D03*
D40*
X119355Y58379D03*
D268*
X128199Y58379D03*
D269*
X147267Y58379D03*
D270*
X175121Y58379D03*
D271*
X191088Y58379D03*
D32*
X116196Y58379D03*
X122514Y58379D03*
X125730Y58379D03*
X130669Y58379D03*
X144338Y58379D03*
X150196Y58379D03*
D33*
X173571Y58379D03*
D32*
X176615Y58379D03*
X188216Y58379D03*
X193960Y58379D03*
D53*
X119355Y58494D03*
D272*
X128142Y58494D03*
D273*
X147210Y58494D03*
D274*
X175409Y58494D03*
D275*
X191145Y58494D03*
D58*
X116196Y58494D03*
X122514Y58494D03*
D59*
X126074Y58494D03*
D28*
X130267Y58494D03*
D58*
X144683Y58494D03*
D28*
X149794Y58494D03*
D29*
X174145Y58494D03*
X188618Y58494D03*
D58*
X193615Y58494D03*
D40*
X119355Y58609D03*
D276*
X128142Y58609D03*
D277*
X147267Y58609D03*
D278*
X191088Y58609D03*
D32*
X116196Y58609D03*
X122514Y58609D03*
D31*
X126706Y58609D03*
D25*
X129635Y58609D03*
D31*
X145084Y58609D03*
D32*
X149392Y58609D03*
D33*
X188963Y58609D03*
X193213Y58609D03*
D40*
X119355Y58724D03*
D279*
X147209Y58724D03*
D280*
X191145Y58724D03*
D32*
X116196Y58724D03*
X122514Y58724D03*
D21*
X128257Y58724D03*
D33*
X145544Y58724D03*
D31*
X148875Y58724D03*
D25*
X189480Y58724D03*
D31*
X192753Y58724D03*
D45*
X119355Y58839D03*
D281*
X147267Y58839D03*
X191145Y58839D03*
D38*
X116196Y58839D03*
X122514Y58839D03*
D282*
X146520Y58839D03*
X148013Y58839D03*
D283*
X190341Y58839D03*
D284*
X191892Y58839D03*
D40*
X119355Y58953D03*
D32*
X116196Y58953D03*
X122514Y58953D03*
D40*
X119355Y59068D03*
D32*
X116196Y59068D03*
X122514Y59068D03*
D45*
X119355Y59183D03*
D38*
X116196Y59183D03*
X122514Y59183D03*
D40*
X119355Y59298D03*
D32*
X116196Y59298D03*
X122514Y59298D03*
D40*
X119355Y59413D03*
D32*
X116196Y59413D03*
X122514Y59413D03*
D53*
X119355Y59528D03*
D58*
X116196Y59528D03*
X122514Y59528D03*
D40*
X119355Y59643D03*
D32*
X116196Y59643D03*
X122514Y59643D03*
D40*
X119355Y59757D03*
D32*
X116196Y59757D03*
X122514Y59757D03*
D53*
X119355Y59872D03*
D58*
X116196Y59872D03*
X122514Y59872D03*
D40*
X119355Y59987D03*
D32*
X116196Y59987D03*
X122514Y59987D03*
D45*
X119355Y60102D03*
D38*
X116196Y60102D03*
X122514Y60102D03*
D40*
X119355Y60217D03*
D32*
X116196Y60217D03*
X122514Y60217D03*
D40*
X119355Y60332D03*
D32*
X116196Y60332D03*
X122514Y60332D03*
D45*
X119355Y60447D03*
D38*
X116196Y60447D03*
X122514Y60447D03*
D40*
X119355Y60561D03*
D32*
X116196Y60561D03*
X122514Y60561D03*
D40*
X119355Y60676D03*
D32*
X116196Y60676D03*
X122514Y60676D03*
D53*
X119355Y60791D03*
D58*
X116196Y60791D03*
X122514Y60791D03*
D40*
X119355Y60906D03*
D32*
X116196Y60906D03*
X122514Y60906D03*
D40*
X119355Y61021D03*
D32*
X116196Y61021D03*
X122514Y61021D03*
D53*
X119355Y61136D03*
D58*
X116196Y61136D03*
X122514Y61136D03*
D40*
X119355Y61251D03*
D32*
X116196Y61251D03*
X122514Y61251D03*
D40*
X119355Y61366D03*
D32*
X116196Y61366D03*
X122514Y61366D03*
D53*
X119355Y61480D03*
D58*
X116196Y61480D03*
X122514Y61480D03*
D40*
X119355Y61595D03*
D32*
X116196Y61595D03*
X122514Y61595D03*
D40*
X119355Y61710D03*
D32*
X116196Y61710D03*
X122514Y61710D03*
D45*
X119355Y61825D03*
D38*
X116196Y61825D03*
X122514Y61825D03*
D40*
X119355Y61940D03*
D32*
X116196Y61940D03*
X122514Y61940D03*
D40*
X119355Y62055D03*
D32*
X116196Y62055D03*
X122514Y62055D03*
D45*
X119355Y62170D03*
D38*
X116196Y62170D03*
X122514Y62170D03*
D40*
X119355Y62284D03*
D32*
X116196Y62284D03*
X122514Y62284D03*
D53*
X119355Y62399D03*
D58*
X116196Y62399D03*
X122514Y62399D03*
D40*
X119355Y62514D03*
D32*
X116196Y62514D03*
X122514Y62514D03*
D40*
X119355Y62629D03*
D32*
X116196Y62629D03*
X122514Y62629D03*
D53*
X119355Y62744D03*
D58*
X116196Y62744D03*
X122514Y62744D03*
D40*
X119355Y62859D03*
D32*
X116196Y62859D03*
X122514Y62859D03*
D40*
X119355Y62974D03*
D32*
X116196Y62974D03*
X122514Y62974D03*
D45*
X119355Y63089D03*
D38*
X116196Y63089D03*
X122514Y63089D03*
D40*
X119355Y63203D03*
D32*
X116196Y63203D03*
X122514Y63203D03*
D40*
X119355Y63318D03*
D32*
X116196Y63318D03*
X122514Y63318D03*
D45*
X119355Y63433D03*
D38*
X116196Y63433D03*
X122514Y63433D03*
D40*
X119355Y63548D03*
D32*
X116196Y63548D03*
X122514Y63548D03*
D40*
X119355Y63663D03*
D32*
X116196Y63663D03*
X122514Y63663D03*
D53*
X119355Y63778D03*
D58*
X116196Y63778D03*
X122514Y63778D03*
D40*
X119355Y63893D03*
D32*
X116196Y63893D03*
X122514Y63893D03*
D40*
X119355Y64007D03*
D32*
X116196Y64007D03*
X122514Y64007D03*
D53*
X119355Y64122D03*
D58*
X116196Y64122D03*
X122514Y64122D03*
D40*
X119355Y64237D03*
D32*
X116196Y64237D03*
X122514Y64237D03*
D45*
X119355Y64352D03*
D38*
X116196Y64352D03*
X122514Y64352D03*
D40*
X119355Y64467D03*
D32*
X116196Y64467D03*
X122514Y64467D03*
D40*
X119355Y64582D03*
D32*
X116196Y64582D03*
X122514Y64582D03*
D45*
X119355Y64697D03*
D38*
X116196Y64697D03*
X122514Y64697D03*
D40*
X119355Y64811D03*
D32*
X116196Y64811D03*
X122514Y64811D03*
D40*
X119355Y64926D03*
D32*
X116196Y64926D03*
X122514Y64926D03*
D53*
X119355Y65041D03*
D58*
X116196Y65041D03*
X122514Y65041D03*
D40*
X119355Y65156D03*
D32*
X116196Y65156D03*
X122514Y65156D03*
D40*
X119355Y65271D03*
D32*
X116196Y65271D03*
X122514Y65271D03*
D53*
X119355Y65386D03*
D58*
X116196Y65386D03*
X122514Y65386D03*
D40*
X119355Y65501D03*
D32*
X116196Y65501D03*
X122514Y65501D03*
D40*
X119355Y65616D03*
D32*
X116196Y65616D03*
X122514Y65616D03*
D53*
X119355Y65730D03*
D58*
X116196Y65730D03*
X122514Y65730D03*
D40*
X119355Y65845D03*
D32*
X116196Y65845D03*
X122514Y65845D03*
D40*
X119355Y65960D03*
D32*
X116196Y65960D03*
X122514Y65960D03*
D45*
X119355Y66075D03*
D38*
X116196Y66075D03*
X122514Y66075D03*
D40*
X119355Y66190D03*
D32*
X116196Y66190D03*
X122514Y66190D03*
D40*
X119355Y66305D03*
D32*
X116196Y66305D03*
X122514Y66305D03*
D45*
X119355Y66420D03*
D38*
X116196Y66420D03*
X122514Y66420D03*
D40*
X119355Y66534D03*
D32*
X116196Y66534D03*
X122514Y66534D03*
D53*
X119355Y66649D03*
D58*
X116196Y66649D03*
X122514Y66649D03*
D40*
X119355Y66764D03*
D32*
X116196Y66764D03*
X122514Y66764D03*
D40*
X119355Y66879D03*
D32*
X116196Y66879D03*
X122514Y66879D03*
D53*
X119355Y66994D03*
D58*
X116196Y66994D03*
X122514Y66994D03*
D40*
X119355Y67109D03*
D32*
X116196Y67109D03*
X122514Y67109D03*
D40*
X119355Y67224D03*
D32*
X116196Y67224D03*
X122514Y67224D03*
D45*
X119355Y67339D03*
D38*
X116196Y67339D03*
X122514Y67339D03*
D40*
X119355Y67453D03*
D32*
X116196Y67453D03*
X122514Y67453D03*
D40*
X119355Y67568D03*
D32*
X116196Y67568D03*
X122514Y67568D03*
D45*
X119355Y67683D03*
D38*
X116196Y67683D03*
X122514Y67683D03*
D40*
X119355Y67798D03*
D32*
X116196Y67798D03*
X122514Y67798D03*
D40*
X119355Y67913D03*
D32*
X116196Y67913D03*
X122514Y67913D03*
D53*
X119355Y68028D03*
D58*
X116196Y68028D03*
X122514Y68028D03*
D40*
X119355Y68143D03*
D32*
X116196Y68143D03*
X122514Y68143D03*
D40*
X119355Y68257D03*
D32*
X116196Y68257D03*
X122514Y68257D03*
D53*
X119355Y68372D03*
D58*
X116196Y68372D03*
X122514Y68372D03*
D40*
X119355Y68487D03*
D32*
X116196Y68487D03*
X122514Y68487D03*
D45*
X119355Y68602D03*
D38*
X116196Y68602D03*
X122514Y68602D03*
D40*
X119355Y68717D03*
D32*
X116196Y68717D03*
X122514Y68717D03*
D40*
X119355Y68832D03*
D32*
X116196Y68832D03*
X122514Y68832D03*
D45*
X119355Y68947D03*
D38*
X116196Y68947D03*
X122514Y68947D03*
D40*
X119355Y69061D03*
D32*
X116196Y69061D03*
X122514Y69061D03*
D40*
X119355Y69176D03*
D32*
X116196Y69176D03*
X122514Y69176D03*
D53*
X119355Y69291D03*
D285*
X116837Y86063D02*
X116837Y96740D01*
X122176Y96740D01*
X123955Y94961D01*
X123955Y91402D01*
X122176Y89622D01*
X116837Y89622D01*
X130311Y86063D02*
X133870Y86063D01*
X135649Y87843D01*
X135649Y91402D01*
X133870Y93181D01*
X130311Y93181D01*
X128531Y91402D01*
X128531Y87843D01*
X130311Y86063D01*
X140225Y87843D02*
X140225Y93181D01*
X140225Y87843D02*
X142005Y86063D01*
X143784Y87843D01*
X145564Y86063D01*
X147343Y87843D01*
X147343Y93181D01*
X153699Y86063D02*
X157258Y86063D01*
X153699Y86063D02*
X151919Y87843D01*
X151919Y91402D01*
X153699Y93181D01*
X157258Y93181D01*
X159037Y91402D01*
X159037Y89622D01*
X151919Y89622D01*
X163613Y86063D02*
X163613Y93181D01*
X163613Y89622D02*
X167172Y93181D01*
X168952Y93181D01*
X175137Y86063D02*
X178697Y86063D01*
X175137Y86063D02*
X173358Y87843D01*
X173358Y91402D01*
X175137Y93181D01*
X178697Y93181D01*
X180476Y91402D01*
X180476Y89622D01*
X173358Y89622D01*
X192170Y86063D02*
X192170Y96740D01*
X192170Y86063D02*
X186831Y86063D01*
X185052Y87843D01*
X185052Y91402D01*
X186831Y93181D01*
X192170Y93181D01*
X208440Y96740D02*
X208440Y86063D01*
X213778Y86063D01*
X215558Y87843D01*
X215558Y91402D01*
X213778Y93181D01*
X208440Y93181D01*
X220134Y93181D02*
X220134Y87843D01*
X221913Y86063D01*
X227252Y86063D01*
X227252Y84284D02*
X227252Y93181D01*
X227252Y84284D02*
X225472Y82504D01*
X223693Y82504D01*
X231828Y93181D02*
X233607Y93181D01*
X233607Y91402D01*
X231828Y91402D01*
X231828Y93181D01*
X231828Y87843D02*
X233607Y87843D01*
X233607Y86063D01*
X231828Y86063D01*
X231828Y87843D01*
D286*
X698840Y75811D02*
X698840Y61321D01*
X698840Y68566D02*
X701255Y70981D01*
X706085Y70981D01*
X708500Y68566D01*
X708500Y61321D01*
X717626Y70981D02*
X722457Y70981D01*
X724872Y68566D01*
X724872Y61321D01*
X717626Y61321D01*
X715211Y63736D01*
X717626Y66151D01*
X724872Y66151D01*
X731583Y61321D02*
X731583Y70981D01*
X731583Y66151D02*
X736413Y70981D01*
X738828Y70981D01*
X745226Y70981D02*
X745226Y56491D01*
X745226Y70981D02*
X752471Y70981D01*
X754886Y68566D01*
X754886Y63736D01*
X752471Y61321D01*
X745226Y61321D01*
X780384Y70981D02*
X787629Y70981D01*
X780384Y70981D02*
X777969Y68566D01*
X777969Y63736D01*
X780384Y61321D01*
X787629Y61321D01*
X796756Y70981D02*
X801586Y70981D01*
X804001Y68566D01*
X804001Y61321D01*
X796756Y61321D01*
X794341Y63736D01*
X796756Y66151D01*
X804001Y66151D01*
X810712Y61321D02*
X810712Y70981D01*
X813127Y70981D01*
X815542Y68566D01*
X815542Y61321D01*
X815542Y68566D02*
X817957Y70981D01*
X820372Y68566D01*
X820372Y61321D01*
X829499Y61321D02*
X834329Y61321D01*
X829499Y61321D02*
X827084Y63736D01*
X827084Y68566D01*
X829499Y70981D01*
X834329Y70981D01*
X836744Y68566D01*
X836744Y66151D01*
X827084Y66151D01*
X843455Y61321D02*
X843455Y70981D01*
X843455Y66151D02*
X848285Y70981D01*
X850700Y70981D01*
X859513Y70981D02*
X864343Y70981D01*
X866758Y68566D01*
X866758Y61321D01*
X859513Y61321D01*
X857098Y63736D01*
X859513Y66151D01*
X866758Y66151D01*
X688036Y44311D02*
X680790Y44311D01*
X678375Y41896D01*
X678375Y37066D01*
X680790Y34651D01*
X688036Y34651D01*
X697162Y34651D02*
X701992Y34651D01*
X704407Y37066D01*
X704407Y41896D01*
X701992Y44311D01*
X697162Y44311D01*
X694747Y41896D01*
X694747Y37066D01*
X697162Y34651D01*
X711118Y34651D02*
X711118Y44311D01*
X718364Y44311D01*
X720779Y41896D01*
X720779Y34651D01*
X729905Y37066D02*
X729905Y46726D01*
X729905Y37066D02*
X732320Y34651D01*
X732320Y44311D02*
X727490Y44311D01*
X738404Y44311D02*
X738404Y34651D01*
X738404Y39481D02*
X743234Y44311D01*
X745650Y44311D01*
X754462Y34651D02*
X759293Y34651D01*
X761708Y37066D01*
X761708Y41896D01*
X759293Y44311D01*
X754462Y44311D01*
X752047Y41896D01*
X752047Y37066D01*
X754462Y34651D01*
X768419Y49141D02*
X770834Y49141D01*
X770834Y34651D01*
X768419Y34651D02*
X773249Y34651D01*
X779333Y49141D02*
X781748Y49141D01*
X781748Y34651D01*
X779333Y34651D02*
X784163Y34651D01*
X792663Y34651D02*
X797493Y34651D01*
X792663Y34651D02*
X790248Y37066D01*
X790248Y41896D01*
X792663Y44311D01*
X797493Y44311D01*
X799908Y41896D01*
X799908Y39481D01*
X790248Y39481D01*
X806619Y34651D02*
X806619Y44311D01*
X806619Y39481D02*
X811449Y44311D01*
X813864Y44311D01*
X836634Y44311D02*
X841464Y34651D01*
X846294Y44311D01*
X853005Y44311D02*
X857835Y49141D01*
X857835Y34651D01*
X853005Y34651D02*
X862666Y34651D01*
X869377Y34651D02*
X869377Y37066D01*
X871792Y37066D01*
X871792Y34651D01*
X869377Y34651D01*
X877563Y44311D02*
X882393Y49141D01*
X882393Y34651D01*
X877563Y34651D02*
X887223Y34651D01*
M02*
